<svg id="Group_1214" data-name="Group 1214" xmlns="http://www.w3.org/2000/svg" xmlns:xlink="http://www.w3.org/1999/xlink" width="92.518" height="67.181" viewBox="0 0 92.518 67.181">
  <defs>
    <clipPath id="clip-path">
      <rect id="Rectangle_1088" data-name="Rectangle 1088" width="92.518" height="67.181" fill="#825da7"/>
    </clipPath>
  </defs>
  <g id="Group_1213" data-name="Group 1213" clip-path="url(#clip-path)">
    <path id="Path_32559" data-name="Path 32559" d="M94.089,20.94h6.143c.061,0,.121,0,.18,0a4.388,4.388,0,0,0,4.362-4.1,4.328,4.328,0,0,0-3.869-4.634,11.93,11.93,0,0,0-1.442-.062c-3.313-.006-6.625.011-9.937-.012A1.649,1.649,0,0,1,87.8,9.919,1.737,1.737,0,0,1,89.671,8.8c3.162.015,6.324.01,9.486,0,1.067,0,1.679-.494,1.7-1.326.021-.882-.582-1.378-1.719-1.38-3.192-.006-6.384-.017-9.576,0a4.378,4.378,0,1,0,.025,8.748c2.2.017,4.4,0,6.6,0,1.355,0,2.711-.028,4.064.012a1.682,1.682,0,0,1,1.8,1.968,1.722,1.722,0,0,1-1.925,1.391c-4.155.006-8.311-.007-12.467.007a4.259,4.259,0,0,0-4.375,3.432,18.871,18.871,0,0,0-.119,3.509,1.283,1.283,0,0,0,1.373,1.266,1.3,1.3,0,0,0,1.287-1.348c.035-.721,0-1.445.017-2.168a1.762,1.762,0,0,1,2.014-1.983c2.078-.009,4.156,0,6.234,0M110.47,8.8V8.792c1.506,0,3.012.049,4.516-.011A4.384,4.384,0,0,0,114.9.015c-.963-.028-1.927-.006-2.891-.006-1.024,0-2.048-.027-3.07.014a1.369,1.369,0,0,0-1.4,1.358,1.351,1.351,0,0,0,1.413,1.331c.421.021.843.007,1.265.007,1.535,0,3.071-.022,4.606.011a1.658,1.658,0,0,1,1.765,1.663,1.685,1.685,0,0,1-1.748,1.688c-.24.017-.481.006-.723.006-2.619,0-5.239,0-7.858,0-1.148,0-1.736.479-1.718,1.369.017.842.613,1.326,1.691,1.336,1.415.013,2.83,0,4.245,0" transform="translate(-31.754 0)" fill="#825da7"/>
    <path id="Path_32560" data-name="Path 32560" d="M0,55.961c.753-2.273,2.361-3.188,4.705-3.064,1.436.076,2.88.014,4.432.014C8.954,50.985,8.785,49.14,8.6,47.3q-.867-8.761-1.74-17.521-.953-9.569-1.909-19.138c-.146-1.468-.315-2.933-.426-4.4C4.367,4.1,5.2,3.216,7.32,3.215q5.557-.006,11.113,0,10.481,0,20.961,0c2.27,0,3.107.845,2.9,3.08-.555,5.873-1.157,11.741-1.737,17.612-.221,2.237-.433,4.474-.661,6.833H41.24q24.033,0,48.066.009a5.615,5.615,0,0,1,1.773.223,2.289,2.289,0,0,1,1.432,2.554,29.053,29.053,0,0,1-5.493,15.709,28.771,28.771,0,0,1-10.611,9.055,1.221,1.221,0,0,0-.8,1.3c.047,2.017.03,4.035.012,6.053-.016,1.867-.916,2.754-2.8,2.755-17.829,0-35.658.035-53.487-.017a13.187,13.187,0,0,1-12.194-7.32.914.914,0,0,0-.976-.575c-.72.041-1.445.017-2.168.009A3.792,3.792,0,0,1,.182,57.873,1.831,1.831,0,0,0,0,57.587V55.961M38.482,17.347H37.4c-1.566,0-3.132.018-4.7-.02a1.249,1.249,0,0,1-1.321-1.3,1.277,1.277,0,0,1,1.189-1.353,4.362,4.362,0,0,1,.72-.032c1.566,0,3.133-.027,4.7.012.629.015.831-.214.866-.82.062-1.08.209-2.156.312-3.235.146-1.52.285-3.041.433-4.619H7.218c.292,2.909.579,5.76.871,8.661H9.3q8.177,0,16.353,0a4.783,4.783,0,0,1,.988.059,1.228,1.228,0,0,1,1.064,1.356,1.22,1.22,0,0,1-1.169,1.263,8.294,8.294,0,0,1-.993.029q-8.041,0-16.082,0H8.349C9.516,29.1,10.666,40.694,11.817,52.289a5.639,5.639,0,0,1,2.428-3.264c.145-.087.2-.409.208-.625a4.533,4.533,0,0,1,3.179-4.547,1.144,1.144,0,0,0,.6-.635,4.624,4.624,0,0,1,4.226-3.505,1.386,1.386,0,0,0,.874-.552,4.291,4.291,0,0,1,2.923-2.091c.839-.125,1.778.24,2.571.019s1.4-1.087,2.188-1.323a14.149,14.149,0,0,1,3.018-.253l-.1-1.764c-.112-1.981.627-2.872,2.588-2.993.579-.036.687-.271.718-.768.058-.931.181-1.857.273-2.786.319-3.232.636-6.464.969-9.857M14.735,52.911H39.147c.24,0,.482-.011.722,0a1.358,1.358,0,0,1,1.4,1.348,1.324,1.324,0,0,1-1.385,1.349c-.3.019-.6.008-.9.008H4.569c-1.31,0-1.834.3-1.849,1.065s.515,1.095,1.81,1.095H65.681c.271,0,.543.012.812-.013a1.006,1.006,0,0,0,1.014-1.056A1.028,1.028,0,0,0,66.5,55.637a6.452,6.452,0,0,0-.812-.015q-9.53,0-19.059,0c-1.1,0-1.676-.459-1.7-1.309-.023-.879.6-1.394,1.713-1.4,2.619-.006,5.239,0,7.858,0h.964a1.749,1.749,0,0,0-1.49-1.776c-1.189-.383-1.449-.888-1.082-2.1a1.853,1.853,0,0,0-1.906-2.658c-1.214-.038-1.655-.514-1.617-1.746.05-1.648-.923-2.433-2.535-2.046-1.194.287-1.735-.048-2.02-1.248A1.839,1.839,0,0,0,41.893,40c-1.22.668-1.679.535-2.389-.692a1.852,1.852,0,0,0-3.092-.476c-1.086,1.007-1.54,1.011-2.569.026a1.851,1.851,0,0,0-3.1.423c-.748,1.279-1.142,1.389-2.452.687a1.815,1.815,0,0,0-2.841,1.247c-.364,1.385-.81,1.654-2.2,1.329A1.849,1.849,0,0,0,20.825,44.5c.04,1.464-.279,1.808-1.729,1.87a1.823,1.823,0,0,0-1.787,2.538c.426,1.385.214,1.8-1.182,2.268a1.752,1.752,0,0,0-1.391,1.732m43.552,0h1.076c2.319,0,4.638-.015,6.956,0a3.788,3.788,0,1,1,.053,7.573c-.753.014-1.507.036-2.258-.007-.526-.03-.752.208-1.053.62-1.024,1.4-2.143,2.727-3.227,4.081-.114.143-.238.277-.387.449H72.91V64.61c0-2.048.038-4.1-.015-6.144a2.019,2.019,0,0,1,1.357-2.158A26.079,26.079,0,0,0,85.024,47.36c.357-.506.676-1.04,1.063-1.638H55.331c.151.982.285,1.919.449,2.85a.792.792,0,0,0,.287.5,4.676,4.676,0,0,1,2.219,3.842m-48.345,7.6c.248.378.393.632.571.861a10.51,10.51,0,0,0,8.567,4.294q16.037.072,32.075,0a10.506,10.506,0,0,0,8.569-4.29c.187-.24.328-.515.547-.866ZM36.791,35.568a5.178,5.178,0,0,1,3.665.748,3.146,3.146,0,0,0,1.617.544q23.114.043,46.228.023a3.823,3.823,0,0,0,.72-.02c.149-.029.381-.15.4-.257.158-1.02.278-2.045.412-3.089h-53.2c.053.693.1,1.312.156,2.051m15.144,7.375H86.47a3.1,3.1,0,0,0,.719-.017.719.719,0,0,0,.462-.32c.39-.957.74-1.93,1.136-2.982H47.541a4.932,4.932,0,0,1,4.394,3.318" transform="translate(0 -1.227)" fill="#825da7"/>
    <path id="Path_32561" data-name="Path 32561" d="M94.089,24.7c-2.078,0-4.156-.007-6.234,0a1.761,1.761,0,0,0-2.014,1.983c-.017.723.017,1.446-.017,2.168A1.3,1.3,0,0,1,84.537,30.2a1.283,1.283,0,0,1-1.373-1.266,18.874,18.874,0,0,1,.119-3.509A4.259,4.259,0,0,1,87.657,22c4.156-.014,8.312,0,12.467-.007a1.722,1.722,0,0,0,1.925-1.391,1.681,1.681,0,0,0-1.8-1.968c-1.354-.041-2.71-.012-4.065-.012-2.2,0-4.4.014-6.595,0a4.378,4.378,0,1,1-.025-8.747c3.192-.02,6.384-.009,9.576,0,1.137,0,1.74.5,1.719,1.38-.02.833-.632,1.324-1.7,1.326-3.162.007-6.324.012-9.485,0A1.738,1.738,0,0,0,87.8,13.683,1.649,1.649,0,0,0,89.526,15.9c3.312.022,6.625.006,9.937.012a11.8,11.8,0,0,1,1.442.062,4.329,4.329,0,0,1,3.87,4.634,4.389,4.389,0,0,1-4.362,4.1c-.061,0-.121,0-.181,0H94.089" transform="translate(-31.754 -3.765)" fill="#825da7"/>
    <path id="Path_32562" data-name="Path 32562" d="M123.692,8.8c-1.415,0-2.83.01-4.245,0-1.078-.01-1.674-.494-1.691-1.336-.019-.89.569-1.367,1.718-1.369,2.619-.006,5.239,0,7.858,0,.241,0,.483.011.723-.006A1.685,1.685,0,0,0,129.8,4.393a1.658,1.658,0,0,0-1.765-1.663c-1.535-.033-3.071-.01-4.606-.011-.422,0-.844.014-1.265-.007a1.351,1.351,0,0,1-1.413-1.331,1.369,1.369,0,0,1,1.4-1.358c1.022-.041,2.046-.013,3.07-.014.964,0,1.928-.023,2.891.006a4.384,4.384,0,0,1,.088,8.767c-1.5.059-3.01.011-4.516.011Z" transform="translate(-44.975 0)" fill="#825da7"/>
    <path id="Path_32563" data-name="Path 32563" d="M66.954,76.428a10.262,10.262,0,0,1-1.077-.006,1.243,1.243,0,0,1-1.212-1.312A1.194,1.194,0,0,1,65.776,73.8a12.257,12.257,0,0,1,2.418-.014,1.2,1.2,0,0,1,1.157,1.35,1.225,1.225,0,0,1-1.23,1.284c-.386.037-.778.007-1.168.007v0" transform="translate(-24.698 -28.163)" fill="#825da7"/>
    <path id="Path_32564" data-name="Path 32564" d="M37.171,78.083A7.667,7.667,0,0,1,36,78.073a1.264,1.264,0,0,1-1.19-1.343,1.239,1.239,0,0,1,1.211-1.317,15.429,15.429,0,0,1,2.158-.014,1.32,1.32,0,0,1,1.328,1.308,1.339,1.339,0,0,1-1.35,1.383c-.328.023-.659,0-.99,0v-.011" transform="translate(-13.296 -28.786)" fill="#825da7"/>
    <path id="Path_32565" data-name="Path 32565" d="M51.245,69.208a11.674,11.674,0,0,1,1.168.007A1.21,1.21,0,0,1,53.6,70.447a1.165,1.165,0,0,1-1.024,1.364,11.6,11.6,0,0,1-2.59.01,1.187,1.187,0,0,1-1.072-1.339,1.248,1.248,0,0,1,1.255-1.275c.357-.026.718,0,1.078,0v0" transform="translate(-18.681 -26.428)" fill="#825da7"/>
  </g>
</svg>
