<svg id="Group_1220" data-name="Group 1220" xmlns="http://www.w3.org/2000/svg" xmlns:xlink="http://www.w3.org/1999/xlink" width="99.373" height="100.609" viewBox="0 0 99.373 100.609">
  <defs>
    <clipPath id="clip-path">
      <rect id="Rectangle_1091" data-name="Rectangle 1091" width="99.373" height="100.609" fill="#825da7"/>
    </clipPath>
  </defs>
  <g id="Group_1219" data-name="Group 1219" clip-path="url(#clip-path)">
    <path id="Path_32572" data-name="Path 32572" d="M94.279,51.974v46.2c1.174,0,2.28,0,3.387,0,1.15,0,1.722.424,1.706,1.239s-.573,1.2-1.752,1.2q-6.969,0-13.937,0H2.081C.587,100.609.037,100.3,0,99.436c-.037-.9.569-1.264,2.083-1.266q1.363,0,2.726-.012a1.535,1.535,0,0,0,.272-.066V51.965c-.431-.057-.861-.09-1.281-.174a3.652,3.652,0,0,1-2.973-3.87A3.592,3.592,0,0,1,4.4,44.612c3.332-.035,6.665-.012,10-.012H29.343V41.284c0-1.717.017-3.433,0-5.15A6.31,6.31,0,0,1,31.67,31c4.676-4.009,9.307-8.071,13.982-12.082a6.756,6.756,0,0,1,2.05-1.241,1,1,0,0,0,.776-1.158c-.021-4.915-.014-9.83-.011-14.745C48.469.335,48.8.006,50.258,0q4.9-.005,9.8,0a2.661,2.661,0,0,1,2.983,2.985c.01,1.38.019,2.76,0,4.14a2.606,2.606,0,0,1-2.8,2.769c-3.06.023-6.121.007-9.251.007-.03.3-.075.557-.076.812-.007,1.448.084,2.9-.028,4.341-.115,1.48.072,2.482,1.735,3.115,1.191.453,2.124,1.61,3.142,2.489,4,3.453,7.977,6.934,11.989,10.373a6.264,6.264,0,0,1,2.285,5.055c-.015,2.423,0,4.847,0,7.271v1.219h1.285q11.413,0,22.825.007a7.172,7.172,0,0,1,1.8.158,3.617,3.617,0,0,1-.152,6.99c-.484.117-.987.157-1.51.236M67.491,98.125c.023-.337.057-.6.057-.865q.007-30.593.018-61.186a4.02,4.02,0,0,0-1.5-3.254C61.421,28.828,56.807,24.8,52.173,20.8a3.389,3.389,0,0,0-4.98.011c-4.557,3.94-9.084,7.914-13.674,11.815A4.648,4.648,0,0,0,31.8,36.49q.042,30.189.019,60.379v1.217h7.343v-1.29c0-6.462-.012-12.924.006-19.386A5.671,5.671,0,0,1,45.1,71.517c2.962-.008,5.924,0,8.885,0,3.881,0,6.228,2.331,6.232,6.2q.009,9.592,0,19.184v1.221Zm2.624-.013h21.57V51.934H70.114ZM29.276,51.967H7.71V98.141H29.276ZM50.861,98.09h6.905c0-7.041.013-14-.011-20.961a2.947,2.947,0,0,0-2.48-3.015,34,34,0,0,0-4.414-.041Zm-2.568.046V73.955c-1.018,0-1.984,0-2.949,0-2.457.008-3.738,1.279-3.74,3.728q-.005,9.735,0,19.47c0,.322.03.644.048.983Zm-19-50.937c-.106-.078-.133-.115-.16-.115q-12.309-.018-24.618-.03A1.1,1.1,0,0,0,3.3,48.141a1.146,1.146,0,0,0,1.154,1.267,6.393,6.393,0,0,0,.806.022H29.292Zm40.791,2.173c.342.021.636.055.931.055q11.653.005,23.307,0c.332,0,.764.044.973-.136.343-.3.763-.777.736-1.15s-.518-.771-.892-1.038c-.205-.146-.587-.052-.889-.052H70.083ZM60.553,2.5H50.962V7.378h9.591Z" transform="translate(0 0)" fill="#825da7"/>
    <path id="Path_32573" data-name="Path 32573" d="M68.041,44.1a8.288,8.288,0,1,1-8.264,8.3,8.281,8.281,0,0,1,8.264-8.3m5.845,8.243a5.818,5.818,0,1,0-5.79,5.873,5.785,5.785,0,0,0,5.79-5.873" transform="translate(-18.482 -13.636)" fill="#825da7"/>
    <path id="Path_32574" data-name="Path 32574" d="M66.7,79.765q-4.689,0-9.378,0c-.335,0-.761.094-.986-.073-.41-.3-.97-.77-.966-1.164s.569-.848.974-1.167c.193-.152.584-.063.886-.063q9.58,0,19.16,0c.3,0,.694-.087.886.065.4.322.967.774.966,1.174s-.563.857-.976,1.158c-.226.165-.651.07-.986.07q-4.79,0-9.58,0" transform="translate(-17.12 -23.891)" fill="#825da7"/>
    <path id="Path_32575" data-name="Path 32575" d="M66.883,89.769c3.262,0,6.524-.019,9.785.021a2.076,2.076,0,0,1,1.328.5,1.248,1.248,0,0,1,.145,1.173,1.553,1.553,0,0,1-1.076.716c-1.272.09-2.553.039-3.831.039H57.4c-.269,0-.538,0-.807,0-.793-.022-1.3-.41-1.3-1.219a1.155,1.155,0,0,1,1.308-1.216c1.849-.014,3.7-.006,5.548-.007h4.742" transform="translate(-17.094 -27.754)" fill="#825da7"/>
    <path id="Path_32576" data-name="Path 32576" d="M120.174,119.12c0,.705.012,1.411,0,2.117a3.361,3.361,0,0,1-3.327,3.466c-1.508.072-3.026.075-4.534,0a3.348,3.348,0,0,1-3.3-3.489q-.032-2.117,0-4.233a3.354,3.354,0,0,1,3.321-3.467c1.509-.064,3.026-.068,4.534,0a3.373,3.373,0,0,1,3.3,3.491c.014.705,0,1.411,0,2.117m-8.719-.032c0,.639.019,1.278,0,1.916a1.063,1.063,0,0,0,1.2,1.254c1.311.006,2.623.011,3.933,0a1.041,1.041,0,0,0,1.148-1.208c-.016-1.277-.019-2.555,0-3.833a1.074,1.074,0,0,0-1.21-1.254c-1.277,0-2.555,0-3.833,0-.886,0-1.286.432-1.246,1.317.027.6,0,1.21.006,1.815" transform="translate(-33.701 -35.081)" fill="#825da7"/>
    <path id="Path_32577" data-name="Path 32577" d="M109.022,92.954c0-.772-.031-1.547.006-2.318A3.308,3.308,0,0,1,112.2,87.45c1.61-.06,3.227-.066,4.836,0a3.289,3.289,0,0,1,3.129,3.224q.068,2.367,0,4.736a3.2,3.2,0,0,1-2.968,3.144,45.157,45.157,0,0,1-5.234-.006,3.2,3.2,0,0,1-2.924-3.078c-.044-.837-.008-1.679-.008-2.519h0m2.437-.013c0,.673.01,1.345,0,2.018-.015.783.325,1.2,1.138,1.193,1.345-.008,2.691,0,4.036,0a.982.982,0,0,0,1.105-1.124c0-1.345,0-2.69,0-4.035a1.013,1.013,0,0,0-1.137-1.116c-1.345-.012-2.69-.016-4.035,0a1.007,1.007,0,0,0-1.1,1.147c.006.639,0,1.278,0,1.917" transform="translate(-33.705 -27.024)" fill="#825da7"/>
    <path id="Path_32578" data-name="Path 32578" d="M29.834,119.195c0,.672.012,1.344,0,2.016a3.359,3.359,0,0,1-3.3,3.49c-1.508.076-3.025.073-4.534,0a3.349,3.349,0,0,1-3.323-3.465q-.033-2.116,0-4.233a3.361,3.361,0,0,1,3.3-3.491c1.509-.07,3.026-.066,4.534,0a3.365,3.365,0,0,1,3.324,3.467c.017.739,0,1.478,0,2.217m-2.445-.141c0-.639-.009-1.278,0-1.916a1.036,1.036,0,0,0-1.176-1.178q-1.967-.013-3.933,0a1.04,1.04,0,0,0-1.172,1.185q.018,1.967,0,3.933a1.008,1.008,0,0,0,1.078,1.169q2.067.037,4.135,0a1,1,0,0,0,1.069-1.175c-.015-.672,0-1.345,0-2.017" transform="translate(-5.769 -35.081)" fill="#825da7"/>
    <path id="Path_32579" data-name="Path 32579" d="M29.826,93.093c0,.739.023,1.479,0,2.217a3.249,3.249,0,0,1-3.07,3.263,46.193,46.193,0,0,1-5.035,0,3.22,3.22,0,0,1-3.035-3.188c-.044-1.544-.041-3.091,0-4.635a3.326,3.326,0,0,1,3.268-3.3c1.544-.045,3.091-.048,4.635,0a3.326,3.326,0,0,1,3.237,3.227c.035.8.006,1.612.008,2.419m-2.439-.082c0-.639-.01-1.278,0-1.917a1.039,1.039,0,0,0-1.139-1.217c-1.345-.012-2.69-.016-4.035,0a1.012,1.012,0,0,0-1.105,1.146c0,1.346,0,2.691,0,4.036,0,.752.394,1.1,1.136,1.093,1.345-.008,2.69,0,4.035,0a.979.979,0,0,0,1.1-1.124c0-.673,0-1.345,0-2.018" transform="translate(-5.766 -27.027)" fill="#825da7"/>
    <path id="Path_32580" data-name="Path 32580" d="M71.781,53.836c.549,0,.946-.016,1.343,0A1.134,1.134,0,0,1,74.3,54.978a1.113,1.113,0,0,1-1.053,1.257,16.99,16.99,0,0,1-2.818,0,1.162,1.162,0,0,1-1.086-1.246q-.044-1.814,0-3.63a1.18,1.18,0,0,1,1.223-1.315c.809,0,1.2.517,1.212,1.308.01.769,0,1.537,0,2.482" transform="translate(-21.434 -15.474)" fill="#825da7"/>
  </g>
</svg>
