<svg xmlns="http://www.w3.org/2000/svg" xmlns:xlink="http://www.w3.org/1999/xlink" width="75.477" height="75.494" viewBox="0 0 75.477 75.494">
  <defs>
    <clipPath id="clip-path">
      <rect id="Rectangle_1090" data-name="Rectangle 1090" width="75.477" height="75.494" fill="#825da7"/>
    </clipPath>
  </defs>
  <g id="Group_1218" data-name="Group 1218" transform="translate(374 -64)">
    <g id="Group_1217" data-name="Group 1217" transform="translate(-374 64)" clip-path="url(#clip-path)">
      <path id="Path_32570" data-name="Path 32570" d="M55.747,75.494h-.737a2.19,2.19,0,0,1-1.018-1.522q-7.3-28.058-14.625-56.111c-.054-.207-.121-.41-.182-.616l-.167.042v.947q0,27.643.01,55.286a2.087,2.087,0,0,1-.83,1.974H0V10.912a1.963,1.963,0,0,1,1.884-.866c5.775.018,11.55.01,17.325.01h.929V9.162q0-3.686,0-7.371c0-1.41.387-1.79,1.8-1.79H37.126c1.542,0,1.89.353,1.89,1.926q0,6.486,0,12.973v.775a7.477,7.477,0,0,1,1.237-.609q9.1-2.45,18.2-4.861c1.155-.307,1.7.029,2.006,1.185Q67.908,39.9,75.348,68.42c.333,1.275.051,1.764-1.212,2.1-3.815,1.024-7.633,2.033-11.447,3.061-2.318.624-4.629,1.272-6.943,1.91M22.724,60.36H36.443V16.4H22.724ZM2.566,56.585H20.1V18.9H2.566ZM68.78,53.251c-2.447-9.387-4.863-18.656-7.3-27.99L45.046,29.644l7.3,27.989L68.78,53.251m-48.7,12.226H2.553v7.469H20.082ZM59.626,18.117l-1.386-5.25L41.806,17.256,43.178,22.5l16.447-4.38M71.341,63.059,54.906,67.441c.467,1.79.916,3.5,1.372,5.25L72.716,68.3c-.469-1.79-.914-3.487-1.375-5.244m-1.926-7.373-16.43,4.387,1.285,4.933,16.437-4.382-1.293-4.937M36.447,2.556H22.719V7.5H36.447ZM22.7,72.94H36.437V68.01H22.7ZM2.548,16.309H20.074V12.618H2.548ZM20.1,59.189H2.547V62.87H20.1ZM36.448,10.1H22.718v3.688h13.73Zm23.8,10.449L43.81,24.939c.213.789.406,1.507.611,2.267l16.42-4.388-.591-2.264M36.44,62.969H22.727V65.4H36.44Z" transform="translate(0 0)" fill="#825da7"/>
      <path id="Path_32571" data-name="Path 32571" d="M9.962,51.177c0-1.548-.007-3.1,0-4.643.007-1.151.452-1.6,1.615-1.6q4.68-.014,9.361,0c1.182,0,1.6.418,1.609,1.6q.017,4.679,0,9.358c0,1.2-.452,1.617-1.676,1.618q-4.607.006-9.213,0c-1.246,0-1.691-.445-1.7-1.686-.006-1.548,0-3.095,0-4.642m2.556,3.775h7.468V47.49H12.518Z" transform="translate(-4.937 -22.271)" fill="#825da7"/>
    </g>
  </g>
</svg>
