<svg id="Group_1224" data-name="Group 1224" xmlns="http://www.w3.org/2000/svg" xmlns:xlink="http://www.w3.org/1999/xlink" width="85.344" height="80.646" viewBox="0 0 85.344 80.646">
  <defs>
    <clipPath id="clip-path">
      <rect id="Rectangle_1093" data-name="Rectangle 1093" width="85.344" height="80.646" fill="#825da7"/>
    </clipPath>
  </defs>
  <g id="Group_1223" data-name="Group 1223" clip-path="url(#clip-path)">
    <path id="Path_32582" data-name="Path 32582" d="M50.225,48.952c1.287-2.791,2.564-5.536,3.8-8.3a.855.855,0,0,0-.153-.771c-4.745-4.416-6.212-10.022-5.7-16.232A26.838,26.838,0,0,1,57.524,5.085,18.865,18.865,0,0,1,70.171,0C76.2-.009,81.364,3.619,83.752,9.576a23.259,23.259,0,0,1,.017,16.865C81.451,33.028,77.4,38.223,71.089,41.434a16.467,16.467,0,0,1-9.711,1.812c-.29-.037-.792.1-.893.311-.946,1.925-1.826,3.883-2.778,5.945,1.345-.079,2.577-.143,3.807-.223,3.93-.257,7.862-.5,11.79-.792a6.036,6.036,0,0,1,4.432,1.335c.97.781,2.01,1.476,3,2.236a1.713,1.713,0,0,1-.1,3.017c-1.551,1.025-3.132,2.007-4.55,2.911,1.317,1.412,2.584,2.821,3.908,4.175,1.387,1.418,1.19,2.621-.62,3.391-1.9.806-3.791,1.609-5.8,2.463.908,1.291,1.694,2.567,2.636,3.716,1.806,2.2,1.086,3.612-1.425,4.027a24.292,24.292,0,0,0-2.785.75,5.58,5.58,0,0,1-4.661-.552,3.607,3.607,0,0,0-.446-.226C65.287,76.882,63.839,78,62.309,79a4.646,4.646,0,0,1-5.276-.2c-1.832-1.34-2-2.837-.437-4.556-1.482-2.143-2.883-4.377-4.515-6.426A4.1,4.1,0,0,0,48.927,66.5a7.858,7.858,0,0,1,3.53,6.084,7.412,7.412,0,0,1-1.476,4.947,7.626,7.626,0,0,1-9.19,2.477c-3.509-1.527-5.115-4.916-4.358-9.039-9.935,8.065-20.184,9.053-30.354.541C.21,65.765-1.73,55.975,1.566,47.41A22.057,22.057,0,0,1,25.622,34.038c-.219-.33-.375-.572-.539-.81Q18.906,24.272,12.73,15.314A6.525,6.525,0,1,1,23.42,7.842c2.832,4.035,5.61,8.108,8.41,12.166,4.506,6.529,8.993,13.072,13.528,19.582a7.289,7.289,0,0,1,1.484,5.173,4.855,4.855,0,0,0,1.3,3.659,1.194,1.194,0,0,0,.649.312c.44.1.891.14,1.432.219m-4.334-.183c-1.082-1.5-1.112-3.224-1.1-5.008a4.548,4.548,0,0,0-.78-2.444Q32.918,25.122,21.735,8.99a4.485,4.485,0,1,0-7.346,5.133q6.983,10.151,14,20.279a1.831,1.831,0,0,0,.75.628c.672.28,1.09.7.8,1.43s-.9.7-1.573.488c-1.091-.344-2.2-.616-3.38-.938a13.868,13.868,0,0,0,3.079,11.529l6.742-6.76c-.742-.8-.849-1.316-.33-1.815s.987-.393,1.835.369a21.416,21.416,0,0,1,5.785,8.38c.321.842.582,1.707.856,2.515l2.939-1.458M83.358,17.814c-.149-1.317-.22-2.595-.448-3.843a14.419,14.419,0,0,0-5.184-9.276c-4.446-3.427-9.278-3.41-14.175-1.128-5.331,2.485-8.895,6.721-11.243,12.014A22.445,22.445,0,0,0,50.8,30.909c1.274,4.7,3.938,8.278,8.746,9.83a13.551,13.551,0,0,0,11.363-1.511c8.145-4.789,11.8-12.252,12.449-21.413M20.067,55.573,6.96,42.392A19.685,19.685,0,0,0,1.972,56.706a16.454,16.454,0,0,1,13.279,3.709l4.816-4.842M34.9,70.285,21.8,57.119l-4.922,4.937a16.311,16.311,0,0,1,3.68,13.183A19.8,19.8,0,0,0,34.9,70.285m-6.636-19.6-4.878,4.878L36.475,68.719a19.608,19.608,0,0,0,5-14.31c-6.744.177-8.153-.227-13.212-3.725M22.914,35.93c-4.386-.72-11.45,1.743-14.35,4.97L21.542,54.117l5.08-5.093A16.03,16.03,0,0,1,22.914,35.93M78.331,63.78c-1.454-1.546-2.861-3.058-4.3-4.545a1.13,1.13,0,0,0-.683-.222q-7.5-.558-14.994-1.095c-1.655-.12-3.311-.23-4.979-.345-.155.733-.287,1.359-.406,1.923.088.1.1.133.126.142Q62.3,63,71.5,66.353a.969.969,0,0,0,.637.023c2.112-.87,4.214-1.763,6.19-2.6M53.82,55.543c.424.033.732.057,1.041.079,5,.364,10,.764,15.008,1.082,4.742.3,3.017.857,7.032-1.664.773-.485,1.536-.986,2.373-1.523-1.028-.763-1.954-1.415-2.841-2.117a3.949,3.949,0,0,0-2.843-.877c-6.136.411-12.274.795-18.409,1.215a.861.861,0,0,0-.633.472c-.277,1.062-.476,2.144-.727,3.334m-1.308,6.1c-.217,1.007-.386,1.953-.633,2.878a.732.732,0,0,0,.447,1c5.408,2.908,10.793,5.86,16.217,8.739a3.766,3.766,0,0,0,2.186.4c1.4-.216,2.772-.679,4.264-1.068-1.014-1.437-1.978-2.76-2.892-4.116a3.682,3.682,0,0,0-1.912-1.453c-5.244-1.882-10.476-3.8-15.713-5.7-.632-.229-1.27-.439-1.964-.679M44.83,78.6a5.6,5.6,0,0,0,0-11.206,5.6,5.6,0,1,0,0,11.206M2.208,58.761a19.7,19.7,0,0,0,4.753,9.922l6.8-6.84a13.972,13.972,0,0,0-11.55-3.082m16.17,16.222c1.178-3-.466-9.076-3.06-11.484l-6.74,6.783a19.43,19.43,0,0,0,9.8,4.7M41.24,52.289a19.532,19.532,0,0,0-4.755-9.882l-6.753,6.8A13.925,13.925,0,0,0,41.24,52.289M48.4,50.757a5.824,5.824,0,0,0-3.36.651,2.6,2.6,0,0,0-1.569,2.808,18.746,18.746,0,0,1-.648,6.9c-.35,1.32-.205,1.656,1.078,2.163a14.345,14.345,0,0,0,1.719.447c.943-4.4,1.854-8.651,2.78-12.97m2.011.364c-.936,4.37-1.844,8.613-2.768,12.921l2.159.451,2.762-12.9-2.154-.468m8.2-8.468-2.675-1.213-3.734,8.1c1.022.054,1.858.127,2.694.121a.847.847,0,0,0,.634-.389c1.043-2.188,2.05-4.392,3.081-6.623m6.469,32.084c-1.135-.615-1.915-1.063-2.723-1.455a.8.8,0,0,0-.671.067c-1.272.842-2.516,1.725-3.782,2.575-.433.291-.372.542-.065.882a2.739,2.739,0,0,0,3.486.415c.952-.607,1.864-1.277,2.8-1.911.258-.174.534-.321.956-.572m-6.755-1.576L60.026,72l-3.677-1.99-.109.124,2.088,3.03M43.47,65.388l-1.782-.962-1.036,2.049,2.818-1.087" transform="translate(0 0)" fill="#825da7"/>
    <path id="Path_32583" data-name="Path 32583" d="M31.016,23.081a2.788,2.788,0,0,1,.736.6q3.582,5.316,7.115,10.664a1.026,1.026,0,1,1-1.709,1.108c-2.368-3.557-4.744-7.109-7.1-10.677a1.041,1.041,0,0,1,.955-1.69" transform="translate(-12.48 -9.656)" fill="#825da7"/>
    <path id="Path_32584" data-name="Path 32584" d="M27.431,18.1a1.363,1.363,0,0,1,1.251,1.34.945.945,0,0,1-1.037.98,1.393,1.393,0,0,1-1.172-1.34.957.957,0,0,1,.958-.98" transform="translate(-11.074 -7.573)" fill="#825da7"/>
    <path id="Path_32585" data-name="Path 32585" d="M118.82,21.569c-.656,8.391-3.994,15.133-11.7,19.06-4.356,2.22-8.779,2.118-12.788-1.023a12.9,12.9,0,0,1-4.545-8.222C88.259,23.062,93,13.311,100.5,9.4c3.558-1.858,7.267-2.417,11.038-.713,3.844,1.737,5.851,4.965,6.752,8.946.292,1.29.362,2.63.532,3.937m-15.857,3.377-4.169-1.92-1.573,3.408,4.171,1.914,1.572-3.4m-6.6,3.344L94.789,31.7l4.169,1.917,1.573-3.4-4.165-1.925m8.457-2.49-1.568,3.407,4.166,1.917,1.572-3.409-4.17-1.915m-1.168-13.311L102.089,15.9l4.164,1.911,1.576-3.406-4.175-1.92m7.772,9.955-4.179-1.909-1.558,3.412,4.168,1.9,1.569-3.406M99.656,21.16l4.164,1.925,1.576-3.407-4.169-1.922-1.571,3.4m10.033-5.9-1.571,3.413,4.169,1.918c.536-1.167,1.038-2.261,1.565-3.408l-4.164-1.923m-4.7,21.133c.533-1.154,1.039-2.246,1.577-3.408l-4.176-1.917-1.564,3.408,4.162,1.917m9.63-6.083-3.761-1.74-1.573,3.412,3.367,1.548,1.968-3.22M93.169,20.439c-.366,1.127-.706,2.112-.993,3.113a.684.684,0,0,0,.188.615c.969.494,1.966.934,3,1.412l1.566-3.416-3.76-1.724m22.276,7.99c.3-1.124.59-2.177.843-3.24a.629.629,0,0,0-.164-.553c-.921-.461-1.866-.875-2.843-1.322-.544,1.183-1.045,2.271-1.565,3.4l3.728,1.713M97.793,20.306,99.365,16.9,96.2,15.453,94.084,18.6l3.709,1.7m-1.182,18.4L98.1,35.475l-4.279-1.96c-.174.7-.606,1.411-.41,1.829a7.737,7.737,0,0,0,3.2,3.361m7.445-.482-4.1-1.889-1.569,3.406c1.3.094,2.439.259,3.578.241,1.566-.026,1.565-.086,2.086-1.757m.255-27.921.3.375,4.079,1.869,1.077-2.336a8.886,8.886,0,0,0-4.642-.309,3.194,3.194,0,0,0-.812.4m4.111,23.54-1.628,3.531c.6.109,1.224.423,1.509.234,1.038-.689,1.964-1.546,3.035-2.424l-2.916-1.342M92.969,30.755,94.5,27.432,91.591,26.1c0,1.08.046,2-.013,2.92-.062.962.235,1.59,1.391,1.731m21.671-15.462c.606-.992-1.388-3.626-3.068-4.114L110.557,13.4l4.083,1.892m-12.865-3.608c-.825-.427-2.7.67-3.949,2.252l2.4,1.1,1.551-3.354m14.005,6.222-1.636,3.541,2.621,1.185c-.122-1.451-.2-2.684-.349-3.909-.031-.246-.346-.457-.636-.817" transform="translate(-37.441 -3.206)" fill="#825da7"/>
  </g>
</svg>
