<svg id="Group_1216" data-name="Group 1216" xmlns="http://www.w3.org/2000/svg" xmlns:xlink="http://www.w3.org/1999/xlink" width="87.901" height="50" viewBox="0 0 87.901 50">
  <defs>
    <clipPath id="clip-path">
      <rect id="Rectangle_1089" data-name="Rectangle 1089" width="87.901" height="50" fill="#825da7"/>
    </clipPath>
  </defs>
  <g id="Group_1215" data-name="Group 1215" transform="translate(0 0)" clip-path="url(#clip-path)">
    <path id="Path_32566" data-name="Path 32566" d="M0,3.374a.882.882,0,0,0,.144-.2A4.213,4.213,0,0,1,4.5.011c1.087-.022,2.174,0,3.262,0q35.789,0,71.578.008A7.694,7.694,0,0,1,81.384.2a4.126,4.126,0,0,1,3.041,3.474Q86.1,12.17,87.757,20.667a7.666,7.666,0,0,1,.136,1.446q.014,7.726.005,15.451c0,3.331-1.942,5.267-5.28,5.278-.773,0-1.546.023-2.317-.008a.684.684,0,0,0-.831.608,8.266,8.266,0,0,1-6.4,6.335,8.408,8.408,0,0,1-9.877-5.889c-.2-.8-.483-1.072-1.34-1.068-8.925.037-17.851.024-26.777.018-.4,0-.894.06-1.163-.146a2.155,2.155,0,0,1-.832-1.229A1.062,1.062,0,0,1,34.1,40.3a6.88,6.88,0,0,1,1.027-.036q13.431,0,26.864.016c.706,0,.982-.2,1.15-.881a8.4,8.4,0,0,1,8.1-6.318,8.5,8.5,0,0,1,8.17,6.254c.079.3.168.6.259.916,1.223,0,2.4.043,3.565-.012A2.084,2.084,0,0,0,85.292,38.3c.05-2.913.018-5.828.018-8.826-1.515-.111-2.991-.191-4.461-.332a45.793,45.793,0,0,1-13.2-2.763,22.3,22.3,0,0,1-2.512-1.285A4.277,4.277,0,0,1,62.9,21.115c-.008-4.435-.016-8.87,0-13.305A2.352,2.352,0,0,1,65.55,5.253q7.767-.007,15.534,0h.933C81.9,3.1,81.384,2.592,79.376,2.592H5.051c-2.048,0-2.476.427-2.476,2.459q0,16.438,0,32.877c0,1.839.5,2.333,2.353,2.333,1.03,0,2.059-.005,3.089-.011.055,0,.11-.028.048-.011a23.588,23.588,0,0,1,1.54-3.3A7.946,7.946,0,0,1,18.2,33.274a7.986,7.986,0,0,1,6.584,6.219c.169.634.437.818,1.051.782.8-.048,1.6-.022,2.4,0a1.272,1.272,0,1,1,.1,2.541,23.478,23.478,0,0,1-2.658.018c-.526-.021-.724.154-.86.675a8.223,8.223,0,0,1-6.2,6.226A8.379,8.379,0,0,1,8.562,43.907c-.219-.851-.538-1.158-1.428-1.086a20.106,20.106,0,0,1-3.256-.027C1.8,42.62.635,41.314,0,39.433V3.374M65.468,7.868v11.48c0,3.221.156,3.443,3.149,4.654A39.184,39.184,0,0,0,79.2,26.372c2.007.218,4.023.352,5.99.521a57.451,57.451,0,0,0-.043-5.979c-.231-2.178-.792-4.322-1.218-6.479-.431-2.181-.872-4.361-1.314-6.567ZM16.624,47.4a5.871,5.871,0,1,0-5.856-5.909A5.879,5.879,0,0,0,16.624,47.4m60.507-5.9a5.864,5.864,0,1,0-5.869,5.9,5.89,5.89,0,0,0,5.869-5.9" transform="translate(0 0)" fill="#825da7"/>
    <path id="Path_32567" data-name="Path 32567" d="M22.448,27.535q-5.06,0-10.119,0c-1.887,0-2.636-.756-2.638-2.655q-.006-6.647,0-13.295c0-1.876.773-2.638,2.66-2.639q10.2,0,20.41,0c1.879,0,2.634.763,2.636,2.661q.005,6.646,0,13.294c0,1.883-.758,2.631-2.658,2.633q-5.146.006-10.291,0M12.33,24.9H21.19V11.56H12.33ZM32.774,11.569H23.89v13.34h8.884Z" transform="translate(-4.001 -3.693)" fill="#825da7"/>
    <path id="Path_32568" data-name="Path 32568" d="M70.748,27.535q-5.106,0-10.213,0c-1.92,0-2.629-.721-2.631-2.653q0-6.653,0-13.305c0-1.908.732-2.629,2.662-2.63q10.17,0,20.341,0c1.954,0,2.679.727,2.68,2.7q.008,6.609,0,13.22c0,1.955-.732,2.665-2.712,2.667q-5.063,0-10.128,0M69.441,11.587h-8.9v13.3h8.9c0-1.409,0-2.75,0-4.092,0-1.319.408-1.956,1.262-1.985.893-.031,1.311.6,1.313,1.992q0,2.045,0,4.093h8.938V11.579H72.014c0,.79.012,1.528,0,2.266-.02.972-.475,1.5-1.268,1.5s-1.262-.528-1.3-1.494c-.026-.738-.005-1.478-.005-2.261" transform="translate(-23.912 -3.693)" fill="#825da7"/>
    <path id="Path_32569" data-name="Path 32569" d="M109.641,51.83a14.241,14.241,0,0,1-1.461-.12,1.118,1.118,0,0,1-.955-1.229,1.077,1.077,0,0,1,1-1.187,19.156,19.156,0,0,1,2.808.007,1.061,1.061,0,0,1,.952,1.139,1.122,1.122,0,0,1-.915,1.262,11.369,11.369,0,0,1-1.425.129" transform="translate(-44.28 -20.336)" fill="#825da7"/>
  </g>
</svg>
