<svg id="Group_1222" data-name="Group 1222" xmlns="http://www.w3.org/2000/svg" xmlns:xlink="http://www.w3.org/1999/xlink" width="93.994" height="94" viewBox="0 0 93.994 94">
  <defs>
    <clipPath id="clip-path">
      <rect id="Rectangle_1092" data-name="Rectangle 1092" width="93.994" height="94" fill="#825da7"/>
    </clipPath>
  </defs>
  <g id="Group_1221" data-name="Group 1221" clip-path="url(#clip-path)">
    <path id="Path_32581" data-name="Path 32581" d="M.925,94C.3,93.547-.213,93.027.1,92.172s1.016-.934,1.8-.932q8.719.018,17.438.006h1.048V71.26c-.95-.161-1.893-.259-2.8-.486-8.142-2.033-13.248-7.352-16.1-15.036A27.821,27.821,0,0,1,.267,42.618,101.619,101.619,0,0,1,4.219,24.465c.036-.116.065-.235.1-.351.324-.949.983-1.364,1.788-1.13.77.224,1.112.977.841,1.948-.5,1.794-1.077,3.568-1.527,5.375C4,36.038,2.575,41.807,2.811,47.752c.326,8.193,3.783,14.7,11.13,18.8a15.257,15.257,0,0,0,6.4,1.856,2.433,2.433,0,0,0,.092-.459c.006-3.212.018-6.425-.014-9.637a1.544,1.544,0,0,0-.444-.932,37.817,37.817,0,0,1-3.257-3.351c-.855-1.155-3.282-1.617-1.983-3.887,2.215-1.2,2.626,1.2,3.836,1.969a10.379,10.379,0,0,1,1.65,1.653l.218-.1V52.7q0-4.773,0-9.545a7.533,7.533,0,0,1,.017-.826,1.41,1.41,0,0,1,1.354-1.359,1.359,1.359,0,0,1,1.366,1.42c.033,1.529.011,3.059.018,4.589,0,.291.028.583.056,1.121,1.32-1.333,2.465-2.511,3.636-3.663A1.379,1.379,0,1,1,28.807,46.4c-1.7,1.721-3.424,3.412-5.109,5.144a1.647,1.647,0,0,0-.478,1.008c-.03,5.108-.021,10.218-.018,15.327,0,.148.033.294.08.686a37.2,37.2,0,0,0,4.35-1.111c6.792-2.615,10.7-7.768,12.559-14.632,1.106-4.076.792-8.195.159-12.292a97.314,97.314,0,0,0-7.494-25.693A31.949,31.949,0,0,0,27.12,5.718a14.279,14.279,0,0,0-2.774-2.225,4.7,4.7,0,0,0-5.13.038A15.491,15.491,0,0,0,13.68,9.538c-1.555,2.762-2.86,5.664-4.27,8.507-.122.245-.193.517-.32.759a1.34,1.34,0,0,1-1.753.731A1.3,1.3,0,0,1,6.6,17.729c1.22-2.7,2.4-5.422,3.784-8.033a31.206,31.206,0,0,1,3.286-4.846A17.519,17.519,0,0,1,16.9,1.76a7.844,7.844,0,0,1,9.869-.026,20.9,20.9,0,0,1,5.512,6.2,64.941,64.941,0,0,1,5.924,12.778c.133.371.269.741.416,1.143.77-.021,1.058-.319,1.039-1.12a8.611,8.611,0,0,1,6.154-8.771.827.827,0,0,0,.648-.912,11.578,11.578,0,0,1,23.126-.084.946.946,0,0,0,.766,1.026A8.655,8.655,0,0,1,76.4,20.748a.962.962,0,0,0,.695,1.077,12.529,12.529,0,0,1,6.431,6.5,1.882,1.882,0,0,1,.127,1.381,1.835,1.835,0,0,1-1.166.832c-.671.137-1.116-.336-1.391-.955a8.753,8.753,0,0,0-4.348-4.787c-2.308-1-3.3-2.4-3.165-4.988.125-2.372-1.726-4.41-4.08-5.209-2.038-.692-2.559-1.381-2.663-3.524a8.831,8.831,0,0,0-17.636.095c-.082,2.012-.655,2.772-2.562,3.4a5.747,5.747,0,0,0-4.2,5.426c.1,2.279-.451,3.932-2.946,4.538.282.994.54,1.889.789,2.786A85.036,85.036,0,0,1,43.6,45.12a8.653,8.653,0,0,1,.048,1.74,3.181,3.181,0,0,0,1.182,2.824,7.934,7.934,0,0,0,11.554-.917,1.674,1.674,0,0,0,.272-.923c.022-2.416.035-4.834-.01-7.25a1.913,1.913,0,0,0-.5-1.18c-1.764-1.826-3.582-3.6-5.366-5.406a1.4,1.4,0,0,1-.158-2.04,1.421,1.421,0,0,1,2.108.113c.134.126.261.259.39.388q1.363,1.364,2.727,2.725c.207.206.429.4.819.757,0-1.428,0-2.637,0-3.847,0-.887-.016-1.775.023-2.661a1.244,1.244,0,0,1,1.3-1.275,1.285,1.285,0,0,1,1.388,1.194,6.167,6.167,0,0,1,.041,1.006c0,2.659,0,5.317,0,8.254.779-.776,1.391-1.384,2-1.993.65-.648,1.286-1.311,1.952-1.942a1.359,1.359,0,0,1,2.034-.109,1.376,1.376,0,0,1-.092,2.042c-1.715,1.747-3.436,3.487-5.2,5.186a2.128,2.128,0,0,0-.713,1.767c.054,1.375-.035,2.755.042,4.128a2.409,2.409,0,0,0,.573,1.438,7.924,7.924,0,0,0,7.856,2.411,7.206,7.206,0,0,0,5.482-5.712A4.178,4.178,0,0,1,76,42.758,9.7,9.7,0,0,0,81.7,35.581c.24-1.1.782-1.638,1.588-1.542a1.375,1.375,0,0,1,1.165,1.752,12.364,12.364,0,0,1-2.087,5.136c-.134.2-.261.4-.443.684A13.3,13.3,0,0,1,88.1,44.329,15.714,15.714,0,0,1,93.81,54.47c.043.269.122.532.184.8v3.488a2.233,2.233,0,0,0-.15.421c-1.062,7.191-5.124,11.6-12.274,13.29V91.247c3.536,0,7.016.021,10.494-.015a1.988,1.988,0,0,1,1.93.933V94H.925m55.7-41.572c-4.606,2.781-9.052,2.965-13.424-.392a24.987,24.987,0,0,1-6.805,13A20.8,20.8,0,0,1,23.26,71.224V91.2H56.624ZM78.712,72.435a13.944,13.944,0,0,1-10.595-7.753,16.207,16.207,0,0,1-1.839-7.5c-.01-.868,0-1.737,0-2.632a12.383,12.383,0,0,1-6.8-2.149V91.2H78.712Zm2.8-2.555a30.173,30.173,0,0,0,4.054-1.829c6.934-4.466,7.683-15.606,1.367-21.076-2.934-2.541-6.242-3.9-10.015-1.553a1.922,1.922,0,0,0-.758.886c-1.2,3.311-3.066,6.031-6.385,7.547a1.018,1.018,0,0,0-.52.654c-.73,5.139.572,9.58,4.645,12.992a9.16,9.16,0,0,0,4.858,2.092V68.519q0-5.367,0-10.735c0-1.082.5-1.716,1.336-1.743.868-.028,1.408.636,1.414,1.758.007,1.208,0,2.415,0,3.918.829-.853,1.453-1.508,2.093-2.147.812-.809,1.626-.914,2.239-.31.642.632.557,1.4-.268,2.232-1.183,1.2-2.386,2.373-3.558,3.578a1.494,1.494,0,0,0-.482.821c-.053,1.217-.023,2.436-.023,3.987" transform="translate(0 0)" fill="#825da7"/>
  </g>
</svg>
