<svg xmlns="http://www.w3.org/2000/svg" width="34.786" height="27.332" viewBox="0 0 34.786 27.332">
  <g id="noun-email-5896930" transform="translate(-2 -5)">
    <g id="Group_912" data-name="Group 912" transform="translate(2 5)">
      <path id="Path_18916" data-name="Path 18916" d="M36.75,201.367l-15.085,11.6a3.728,3.728,0,0,1-4.545,0l-15.085-11.6a5.079,5.079,0,0,0-.036.6v17.393a4.97,4.97,0,0,0,4.969,4.969H31.816a4.97,4.97,0,0,0,4.969-4.969V201.969A5.08,5.08,0,0,0,36.75,201.367ZM3,198.975,18.635,211a1.242,1.242,0,0,0,1.516,0l15.633-12.025A4.962,4.962,0,0,0,31.816,197H6.969A4.962,4.962,0,0,0,3,198.975Z" transform="translate(-2 -197)" fill-rule="evenodd"/>
    </g>
  </g>
</svg>
