<svg xmlns="http://www.w3.org/2000/svg" width="227.898" height="161.31" viewBox="0 0 227.898 161.31">
  <g id="Group_1244" data-name="Group 1244" transform="translate(-867.41 -11910.688)" style="mix-blend-mode: normal;isolation: isolate">
    <g id="Group_561" data-name="Group 561" transform="translate(872.613 11911.405)">
      <path id="Path_86" data-name="Path 86" d="M252.691,104.137C247.6,58.658,199.724,23.094,141.744,23.094S35.891,58.658,30.8,104.137H42.452c5.416-39.1,48.088-69.748,99.353-69.748s93.935,30.649,99.353,69.748Z" transform="translate(-30.799 -23.094)" fill="#e50019" fill-rule="evenodd"/>
      <path id="Path_87" data-name="Path 87" d="M252.691,104.137C247.6,58.658,199.724,23.094,141.744,23.094S35.891,58.658,30.8,104.137H42.452c5.416-39.1,48.088-69.748,99.353-69.748s93.935,30.649,99.353,69.748Z" transform="translate(-30.799 -23.094)" fill="none" stroke="#000" stroke-width="1.436"/>
      <path id="Path_88" data-name="Path 88" d="M240.65,103.646C235.232,64.548,192.559,33.9,141.3,33.9s-93.937,30.65-99.353,69.748H54.612C60.082,70.678,97.494,45,142.339,45s82.259,25.675,87.728,58.644Z" transform="translate(-30.292 -22.603)" fill="#f36a10" fill-rule="evenodd"/>
      <path id="Path_89" data-name="Path 89" d="M240.65,103.646C235.232,64.548,192.559,33.9,141.3,33.9s-93.937,30.65-99.353,69.748H54.612C60.082,70.678,97.494,45,142.339,45s82.259,25.675,87.728,58.644Z" transform="translate(-30.292 -22.603)" fill="none" stroke="#000" stroke-width="1.436"/>
      <path id="Path_90" data-name="Path 90" d="M229.516,103.164C224.046,70.2,186.635,44.52,141.789,44.52S59.531,70.2,54.061,103.164h11.07c5.6-26.738,37.716-47.211,76.073-47.211s70.468,20.472,76.074,47.211Z" transform="translate(-29.741 -22.12)" fill="#ffd300" fill-rule="evenodd"/>
      <path id="Path_91" data-name="Path 91" d="M229.516,103.164C224.046,70.2,186.635,44.52,141.789,44.52S59.531,70.2,54.061,103.164h11.07c5.6-26.738,37.716-47.211,76.073-47.211s70.468,20.472,76.074,47.211Z" transform="translate(-29.741 -22.12)" fill="none" stroke="#000" stroke-width="1.436"/>
      <path id="Path_92" data-name="Path 92" d="M216.8,102.666c-5.606-26.738-37.713-47.21-76.073-47.21s-70.468,20.472-76.074,47.21H75.963c5.795-20.573,32.516-36.22,64.27-36.22s58.478,15.646,64.273,36.22Z" transform="translate(-29.26 -21.623)" fill="#00973d" fill-rule="evenodd"/>
      <path id="Path_93" data-name="Path 93" d="M216.8,102.666c-5.606-26.738-37.713-47.21-76.073-47.21s-70.468,20.472-76.074,47.21H75.963c5.795-20.573,32.516-36.22,64.27-36.22s58.478,15.646,64.273,36.22Z" transform="translate(-29.26 -21.623)" fill="none" stroke="#000" stroke-width="1.436"/>
      <path id="Path_94" data-name="Path 94" d="M204.012,102.189c-5.792-20.573-32.513-36.22-64.27-36.22S81.267,81.615,75.47,102.189H86.459V88.7l23.761-6.741v.731a80.672,80.672,0,0,1,28.741-5.056,78.59,78.59,0,0,1,32.052,6.444L153.8,89.256l23.036-6.925v4.8c6.764,4.092,11.709,9.272,14.028,15.056Z" transform="translate(-28.769 -21.145)" fill="#00a1ed" fill-rule="evenodd"/>
      <path id="Path_95" data-name="Path 95" d="M204.012,102.189c-5.792-20.573-32.513-36.22-64.27-36.22S81.267,81.615,75.47,102.189H86.459V88.7l23.761-6.741v.731a80.672,80.672,0,0,1,28.741-5.056,78.59,78.59,0,0,1,32.052,6.444L153.8,89.256l23.036-6.925v4.8c6.764,4.092,11.709,9.272,14.028,15.056Z" transform="translate(-28.769 -21.145)" fill="none" stroke="#000" stroke-width="1.436"/>
      <path id="Path_96" data-name="Path 96" d="M169.506,83.574a78.627,78.627,0,0,0-32.057-6.448,80.625,80.625,0,0,0-28.737,5.059v19.495h43.476l.106-12.93Zm19.851,18.105c-2.319-5.78-7.262-10.96-14.027-15.054v15.054Z" transform="translate(-27.258 -20.638)" fill="#4e7abc" fill-rule="evenodd"/>
      <path id="Path_97" data-name="Path 97" d="M169.506,83.574a78.627,78.627,0,0,0-32.057-6.448,80.625,80.625,0,0,0-28.737,5.059v19.495h43.476l.106-12.93Zm19.851,18.105c-2.319-5.78-7.262-10.96-14.027-15.054v15.054Z" transform="translate(-27.258 -20.638)" fill="none" stroke="#000" stroke-width="1.435"/>
      <path id="Path_98" data-name="Path 98" d="M152.285,89.194a74.982,74.982,0,0,0-15.426-1.565c-10.883,0-20.8,2.215-28.149,5.816V101.2h43.478Z" transform="translate(-27.258 -20.161)" fill="#6e0764" fill-rule="evenodd"/>
      <path id="Path_99" data-name="Path 99" d="M152.285,89.194a74.982,74.982,0,0,0-15.426-1.565c-10.883,0-20.8,2.215-28.149,5.816V101.2h43.478Z" transform="translate(-27.258 -20.161)" fill="none" stroke="#000" stroke-width="1.435"/>
    </g>
    <g id="Group_562" data-name="Group 562" transform="translate(867.41 11979.248)" style="mix-blend-mode: exclusion;isolation: isolate">
      <path id="Path_101" data-name="Path 101" d="M33.869,105.824l-3.607,8.2,16.89-.039L37.011,129.3c-3.1,4.716,12.15,12.53,24.306,16.862,6.707,3.48,11.418,4.433,14.543,8.121,3.33,3.93,1.394,11.261-8.508,15.548-11.344,4.912-35.872-4.949-34.2-17.249l-7.333,15.934c3.854,11.795,35.789,15.9,43.585,8.547l20.158-18.948c4.9-4.605-.415-10.911-7.124-14.775-6.724-3.873-15.842-7.35-22.842-11.023-6.451-3.362-10.645-5.839-10.309-8.9-1.174-2.666,4.317-10.748,13.452-8.391,6.665,1.7,9.43,6.033,11.149,9.514l7.753-5.956c-.377-1.931-2.724-4.6-6.832-4.6H86.838l3.48-8.2Zm61.109-14.59,11.906-3.248L106.84,145.3l-11.9,7.388c0-4.138-.131-61.415.043-61.454m22.47,14.665-4.153,8.127h11.52l-11.206,12.469a13.341,13.341,0,0,0,1.971,17.732c5,4.535,10.676,5.947,16.927,6.114,5.468-.342,9.214-1.058,14-5.745,5.084-5.172,9.153-8.213,11.311-13.761.751-1.931,1.039-4.807-1.558-8.31-4.144-5.592-13.282-8.036-14.839-8.5h12.66l3.633-8.127Zm12.038,14.13c-3.634-.369-8.82,6.188-9.031,8.129a10.476,10.476,0,0,0,5.606,11.081c7.988,4.343,18.469,2.4,20.857-5.079,1.037-3.418,2.283-8.588-5.4-12.192-3.32-1.2-6.433-2.862-12.036-1.939m32.039-28.495-.044,61.067,11.821-7.35V131.138l17.422,18.678a15.031,15.031,0,0,0,4.257,3.6,48.016,48.016,0,0,0,17.21,1.932l-31.028-32.369,8.387-9.051,6.387-.037,3.869-8.086H181.772l-4.823,8.122,5.259-.076-8.906,9.476V88.17Zm70.251,38.174c-13.075.368-18.78,11.27-9.543,13.576,4.459.554,9.44-2.771,9.543-7.019Zm-23.865-23.828-3.839,8.128h9.753c-3.3,1.416-4.668,3.509-5.187,7.574l8.716,2.213c.608-3.968,2.8-9.718,8.818-9.754l5.6-.033.1,9.144c-46.485,4.339-15.148,46.18-.206,22.257v7.3l12.038-7.019V114.1h4.667l4.568-8.219Z" transform="translate(-25.822 -87.985)" fill="#fff" fill-rule="evenodd"/>
    </g>
  </g>
</svg>
