<svg xmlns="http://www.w3.org/2000/svg" width="35.518" height="35.511" viewBox="0 0 35.518 35.511">
  <path id="Icon_awesome-instagram" data-name="Icon awesome-instagram" d="M17.758,10.888a9.1,9.1,0,1,0,9.1,9.1A9.09,9.09,0,0,0,17.758,10.888Zm0,15.023a5.919,5.919,0,1,1,5.919-5.919,5.93,5.93,0,0,1-5.919,5.919Zm11.6-15.4a2.124,2.124,0,1,1-2.124-2.124A2.119,2.119,0,0,1,29.358,10.516Zm6.03,2.155c-.135-2.845-.784-5.364-2.868-7.44s-4.6-2.726-7.44-2.868c-2.932-.166-11.719-.166-14.651,0-2.837.135-5.356.784-7.44,2.86S.262,9.819.12,12.663C-.047,15.6-.047,24.382.12,27.314c.135,2.845.784,5.364,2.868,7.44s4.6,2.726,7.44,2.868c2.932.166,11.719.166,14.651,0,2.845-.135,5.364-.784,7.44-2.868s2.726-4.6,2.868-7.44c.166-2.932.166-11.711,0-14.643ZM31.6,30.46a5.992,5.992,0,0,1-3.375,3.375c-2.337.927-7.884.713-10.467.713s-8.138.206-10.467-.713A5.993,5.993,0,0,1,3.915,30.46C2.988,28.122,3.2,22.576,3.2,19.993S3,11.855,3.915,9.525A5.992,5.992,0,0,1,7.29,6.15c2.337-.927,7.884-.713,10.467-.713s8.138-.206,10.467.713A5.992,5.992,0,0,1,31.6,9.525c.927,2.337.713,7.884.713,10.467S32.527,28.13,31.6,30.46Z" transform="translate(0.005 -2.237)"/>
</svg>
