<svg id="noun-phone-5899155" xmlns="http://www.w3.org/2000/svg" width="34.786" height="27.668" viewBox="0 0 34.786 27.668">
  <g id="Group_911" data-name="Group 911" transform="translate(0 0)">
    <path id="Path_18914" data-name="Path 18914" d="M32,39.191a.576.576,0,0,1-.161-.4V35.622a.579.579,0,0,0-.58-.58h-2.9a.58.58,0,0,0-.58.58v2.9H20.824v-2.9a.58.58,0,0,0-.58-.58h-2.9a.58.58,0,0,0-.58.58V38.79a.58.58,0,0,1-.161.4l-3.48,3.638A17.532,17.532,0,0,0,8.262,54.947h0a.579.579,0,0,0,.58.58H39.763a.58.58,0,0,0,.58-.58h0A17.532,17.532,0,0,0,35.48,42.829Zm-4.379,9.422h1.95a.719.719,0,0,1,.718.718v.647a.719.719,0,0,1-.718.718h-1.95a.719.719,0,0,1-.718-.718v-.647A.719.719,0,0,1,27.621,48.613Zm1.95-.85h-1.95a.719.719,0,0,1-.718-.718V46.4a.719.719,0,0,1,.718-.718h1.95a.719.719,0,0,1,.718.718v.647A.719.719,0,0,1,29.571,47.762Zm0-2.933h-1.95a.719.719,0,0,1-.718-.718v-.647a.719.719,0,0,1,.718-.718h1.95a.719.719,0,0,1,.718.718v.647A.719.719,0,0,1,29.571,44.829Zm-6.243,3.784h1.95a.719.719,0,0,1,.718.718v.647a.719.719,0,0,1-.718.718h-1.95a.719.719,0,0,1-.718-.718v-.647A.719.719,0,0,1,23.327,48.613Zm1.95-.85h-1.95a.719.719,0,0,1-.718-.718V46.4a.719.719,0,0,1,.718-.718h1.95A.719.719,0,0,1,26,46.4v.647A.719.719,0,0,1,25.277,47.762Zm0-2.933h-1.95a.719.719,0,0,1-.718-.718v-.647a.719.719,0,0,1,.718-.718h1.95a.719.719,0,0,1,.718.718v.647A.719.719,0,0,1,25.277,44.829ZM21.7,43.464v.647a.719.719,0,0,1-.718.718h-1.95a.719.719,0,0,1-.718-.718v-.647a.719.719,0,0,1,.718-.718h1.95A.719.719,0,0,1,21.7,43.464Zm-2.668,5.148h1.95a.719.719,0,0,1,.718.718v.647a.719.719,0,0,1-.718.718h-1.95a.719.719,0,0,1-.718-.718v-.647A.719.719,0,0,1,19.034,48.613Zm1.95-.85h-1.95a.719.719,0,0,1-.718-.718V46.4a.719.719,0,0,1,.718-.718h1.95a.719.719,0,0,1,.718.718v.647A.719.719,0,0,1,20.984,47.762Z" transform="translate(-6.909 -27.86)"/>
    <path id="Path_18915" data-name="Path 18915" d="M38.265,21.789a.408.408,0,0,0-.032-.034l-.033-.033c-6.995-6.995-25.068-7.016-32.088-.065a.4.4,0,0,0-.034.032l-.011.011a4.942,4.942,0,0,0,.011,6.7,4.25,4.25,0,0,0,.559.473,4.178,4.178,0,0,0,.664.4h0l6.443-4.045a4.474,4.474,0,0,0-.824-2.59c3.7-1.777,14.793-1.765,18.485.039v0a4.467,4.467,0,0,0-.841,2.612h0l6.415,4.06a4.186,4.186,0,0,0,.666-.391,4.274,4.274,0,0,0,.586-.492A4.943,4.943,0,0,0,38.265,21.789Z" transform="translate(-4.762 -16.459)"/>
  </g>
</svg>
