<svg xmlns="http://www.w3.org/2000/svg" width="352.516" height="250.25" viewBox="0 0 352.516 250.25">
  <g id="Group_1229" data-name="Group 1229" transform="translate(-867.41 -11910.688)">
    <g id="Group_561" data-name="Group 561" transform="translate(875.503 11911.405)">
      <path id="Path_86" data-name="Path 86" d="M374.42,149.152C366.53,78.412,292.4,23.094,202.608,23.094S38.685,78.412,30.8,149.152H48.844C57.232,88.336,123.314,40.663,202.7,40.663S348.17,88.336,356.559,149.152Z" transform="translate(-30.799 -23.094)" fill="#e50019" fill-rule="evenodd"/>
      <path id="Path_87" data-name="Path 87" d="M374.42,149.152C366.53,78.412,292.4,23.094,202.608,23.094S38.685,78.412,30.8,149.152H48.844C57.232,88.336,123.314,40.663,202.7,40.663S348.17,88.336,356.559,149.152Z" transform="translate(-30.799 -23.094)" fill="none" stroke="#000" stroke-width="1.436"/>
      <path id="Path_88" data-name="Path 88" d="M349.5,142.387C341.115,81.571,275.065,33.9,195.723,33.9S50.329,81.571,41.945,142.387H61.55c8.468-51.28,66.373-91.216,135.785-91.216s127.32,39.936,135.785,91.216Z" transform="translate(-23.82 -16.329)" fill="#f36a10" fill-rule="evenodd"/>
      <path id="Path_89" data-name="Path 89" d="M349.5,142.387C341.115,81.571,275.065,33.9,195.723,33.9S50.329,81.571,41.945,142.387H61.55c8.468-51.28,66.373-91.216,135.785-91.216s127.32,39.936,135.785,91.216Z" transform="translate(-23.82 -16.329)" fill="none" stroke="#000" stroke-width="1.436"/>
      <path id="Path_90" data-name="Path 90" d="M325.453,135.736c-8.461-51.28-66.328-91.216-135.7-91.216S62.522,84.456,54.061,135.736H71.184C79.85,94.146,129.522,62.3,188.853,62.3s109,31.843,117.67,73.433Z" transform="translate(-16.234 -9.679)" fill="#ffd300" fill-rule="evenodd"/>
      <path id="Path_91" data-name="Path 91" d="M325.453,135.736c-8.461-51.28-66.328-91.216-135.7-91.216S62.522,84.456,54.061,135.736H71.184C79.85,94.146,129.522,62.3,188.853,62.3s109,31.843,117.67,73.433Z" transform="translate(-16.234 -9.679)" fill="none" stroke="#000" stroke-width="1.436"/>
      <path id="Path_92" data-name="Path 92" d="M301.3,128.889c-8.719-41.59-58.661-73.433-118.326-73.433S73.368,87.3,64.649,128.889h17.6c9.014-32,50.577-56.337,99.967-56.337s90.959,24.337,99.972,56.337Z" transform="translate(-10.374 -2.831)" fill="#00973d" fill-rule="evenodd"/>
      <path id="Path_93" data-name="Path 93" d="M301.3,128.889c-8.719-41.59-58.661-73.433-118.326-73.433S73.368,87.3,64.649,128.889h17.6c9.014-32,50.577-56.337,99.967-56.337s90.959,24.337,99.972,56.337Z" transform="translate(-10.374 -2.831)" fill="none" stroke="#000" stroke-width="1.436"/>
      <path id="Path_94" data-name="Path 94" d="M273.891,122.306c-8.94-32-50.189-56.337-99.209-56.337S84.418,90.306,75.47,122.306H92.432V101.329L129.11,90.844v1.137a123.686,123.686,0,0,1,44.366-7.864c18.541,0,35.686,3.732,49.477,10.023l-26.566,8.051,35.56-10.771v7.469c10.441,6.365,18.074,14.422,21.654,23.418Z" transform="translate(-2.83 3.751)" fill="#00a1ed" fill-rule="evenodd"/>
      <path id="Path_95" data-name="Path 95" d="M273.891,122.306c-8.94-32-50.189-56.337-99.209-56.337S84.418,90.306,75.47,122.306H92.432V101.329L129.11,90.844v1.137a123.686,123.686,0,0,1,44.366-7.864c18.541,0,35.686,3.732,49.477,10.023l-26.566,8.051,35.56-10.771v7.469c10.441,6.365,18.074,14.422,21.654,23.418Z" transform="translate(-2.83 3.751)" fill="none" stroke="#000" stroke-width="1.436"/>
      <path id="Path_96" data-name="Path 96" d="M203.273,87.156c-13.9-6.29-31.176-10.03-49.862-10.03a125.408,125.408,0,0,0-44.7,7.869v30.322h67.624l.164-20.112Zm30.877,28.161c-3.607-8.991-11.295-17.048-21.818-23.416v23.416Z" transform="translate(17.11 10.737)" fill="#4e7abc" fill-rule="evenodd"/>
      <path id="Path_97" data-name="Path 97" d="M203.273,87.156c-13.9-6.29-31.176-10.03-49.862-10.03a125.408,125.408,0,0,0-44.7,7.869v30.322h67.624l.164-20.112Zm30.877,28.161c-3.607-8.991-11.295-17.048-21.818-23.416v23.416Z" transform="translate(17.11 10.737)" fill="none" stroke="#000" stroke-width="1.435"/>
      <path id="Path_98" data-name="Path 98" d="M176.488,90.063a116.627,116.627,0,0,0-23.993-2.434c-16.928,0-32.347,3.446-43.783,9.046v12.064h67.627Z" transform="translate(17.29 17.313)" fill="#6e0764" fill-rule="evenodd"/>
      <path id="Path_99" data-name="Path 99" d="M176.488,90.063a116.627,116.627,0,0,0-23.993-2.434c-16.928,0-32.347,3.446-43.783,9.046v12.064h67.627Z" transform="translate(17.29 17.313)" fill="none" stroke="#000" stroke-width="1.435"/>
    </g>
    <g id="Group_562" data-name="Group 562" transform="translate(867.41 12015.851)">
      <path id="Path_100" data-name="Path 100" d="M317.136,176.195h2.311v13.289h-2.311Zm-21.367,8.279q0-2.21,2.719-3.779a12.688,12.688,0,0,1,6.448-1.569,13.511,13.511,0,0,1,6.677,1.542q2.761,1.542,2.764,3.678,0,2.244-2.7,3.831a12.745,12.745,0,0,1-6.56,1.589,13.131,13.131,0,0,1-6.631-1.558q-2.712-1.554-2.714-3.734m2.428-.023a3.392,3.392,0,0,0,1.982,2.911,9.574,9.574,0,0,0,4.935,1.169,9.39,9.39,0,0,0,4.869-1.169,3.4,3.4,0,0,0,1.964-2.925,3.354,3.354,0,0,0-1.992-2.924,10.014,10.014,0,0,0-5.054-1.148,9.072,9.072,0,0,0-4.727,1.177,3.4,3.4,0,0,0-1.977,2.909m-22.777.023q0-2.21,2.72-3.779a12.684,12.684,0,0,1,6.448-1.569,13.509,13.509,0,0,1,6.675,1.542q2.761,1.542,2.766,3.678,0,2.244-2.7,3.831a12.745,12.745,0,0,1-6.56,1.589,13.131,13.131,0,0,1-6.631-1.558q-2.71-1.554-2.714-3.734m2.429-.023a3.39,3.39,0,0,0,1.981,2.911,9.574,9.574,0,0,0,4.935,1.169,9.4,9.4,0,0,0,4.87-1.169,3.4,3.4,0,0,0,1.964-2.925,3.356,3.356,0,0,0-1.994-2.924,10.012,10.012,0,0,0-5.052-1.148,9.073,9.073,0,0,0-4.729,1.177,3.4,3.4,0,0,0-1.976,2.909m-20.221-8.256h2.278v4.428a7.327,7.327,0,0,1,2.4-1.033,13.019,13.019,0,0,1,3.14-.346q3.8,0,5.539,1.208a4.45,4.45,0,0,1,1.742,3.93v5.1H270.45v-5.117a3.5,3.5,0,0,0-1.181-3.034,6.93,6.93,0,0,0-3.951-.854,9.79,9.79,0,0,0-2.764.353,4.516,4.516,0,0,0-1.875,1.007,2.208,2.208,0,0,0-.6.937,6.52,6.52,0,0,0-.174,1.828v4.882h-2.278Zm-5.887,6.332a6.533,6.533,0,0,0-2.6-1.62,11.308,11.308,0,0,0-3.647-.524,8.948,8.948,0,0,0-4.729,1.177,3.4,3.4,0,0,0-1.942,2.909,3.367,3.367,0,0,0,1.953,2.9,9.263,9.263,0,0,0,4.818,1.163,11.008,11.008,0,0,0,3.7-.574,5.369,5.369,0,0,0,2.441-1.615H254.3a6.691,6.691,0,0,1-3.3,2.53,14.315,14.315,0,0,1-5.293.893,13.085,13.085,0,0,1-6.615-1.548q-2.7-1.546-2.7-3.727,0-2.225,2.732-3.774a13.289,13.289,0,0,1,6.649-1.547,14.041,14.041,0,0,1,5.169.88,7.1,7.1,0,0,1,3.351,2.478Zm-30.955,3.158h2.262a2.383,2.383,0,0,0,1.252,1.963,5.914,5.914,0,0,0,3.124.732,6.5,6.5,0,0,0,3.308-.725,2.212,2.212,0,0,0,1.22-1.969q0-1.805-5.02-2.729c-.263-.05-.459-.085-.587-.109a10.8,10.8,0,0,1-3.777-1.273,2.332,2.332,0,0,1-1.159-2.013,2.975,2.975,0,0,1,1.781-2.6,9.217,9.217,0,0,1,4.6-1.013,8.459,8.459,0,0,1,4.265.922,3.3,3.3,0,0,1,1.751,2.59h-2.216a2.318,2.318,0,0,0-1.163-1.675,5.114,5.114,0,0,0-2.638-.589,5.739,5.739,0,0,0-2.893.646,1.88,1.88,0,0,0-1.124,1.638,1.3,1.3,0,0,0,.335.9,2.968,2.968,0,0,0,1.075.691,16.664,16.664,0,0,0,2.888.691c.816.148,1.437.265,1.868.359a8.757,8.757,0,0,1,3.353,1.28,2.451,2.451,0,0,1,1.023,2.049,3.564,3.564,0,0,1-1.891,3.119,9.4,9.4,0,0,1-5.025,1.181,8.974,8.974,0,0,1-4.74-1.117,3.471,3.471,0,0,1-1.87-2.945m-14.572,3.8h-2.246v-8.918h-2.411v-1.122h2.312v-.273a2.511,2.511,0,0,1,1.454-2.361,9.872,9.872,0,0,1,4.449-.768h.213v1.16a7.12,7.12,0,0,0-2.943.46,1.555,1.555,0,0,0-.863,1.509v.273h3.807v1.122h-3.771Zm-10.527,0h-2.345v-10.04h2.182V180.6a5.745,5.745,0,0,1,1.857-.979,8.6,8.6,0,0,1,2.358-.327l.016,1.4a6.517,6.517,0,0,0-3.124.727,2.2,2.2,0,0,0-.945,2Zm-23.645-5.009q0-2.21,2.719-3.779a12.688,12.688,0,0,1,6.448-1.569,13.511,13.511,0,0,1,6.677,1.542q2.761,1.542,2.764,3.678,0,2.244-2.7,3.831a12.744,12.744,0,0,1-6.56,1.589,13.131,13.131,0,0,1-6.631-1.558q-2.712-1.554-2.714-3.734m2.429-.023a3.392,3.392,0,0,0,1.979,2.911,9.584,9.584,0,0,0,4.937,1.169,9.394,9.394,0,0,0,4.869-1.169,3.4,3.4,0,0,0,1.964-2.925,3.354,3.354,0,0,0-1.992-2.924,10.011,10.011,0,0,0-5.052-1.148,9.084,9.084,0,0,0-4.73,1.177,3.4,3.4,0,0,0-1.974,2.909m-7.428-3.42v-4.836h2.329v13.287h-2.329v-1.514a9.55,9.55,0,0,1-3.016,1.309,15.067,15.067,0,0,1-3.821.47,12.987,12.987,0,0,1-6.57-1.533q-2.681-1.532-2.677-3.76,0-2.21,2.642-3.719a13.139,13.139,0,0,1,6.6-1.509,15.2,15.2,0,0,1,3.878.458,8.853,8.853,0,0,1,2.96,1.347m.068,3.532a3.461,3.461,0,0,0-2.044-2.927,9.2,9.2,0,0,0-4.8-1.215,9.746,9.746,0,0,0-4.886,1.154,3.318,3.318,0,0,0-2.031,2.823,3.452,3.452,0,0,0,2.044,2.956,9.608,9.608,0,0,0,4.94,1.2,9.221,9.221,0,0,0,4.724-1.2q2.049-1.2,2.049-2.792m-21.284-8.368h2.312v13.289h-2.312Zm-5.948,11.7a7.922,7.922,0,0,1-2.927,1.361,15.47,15.47,0,0,1-3.979.493,13.149,13.149,0,0,1-6.605-1.511q-2.642-1.51-2.641-3.729,0-2.251,2.7-3.769a13.629,13.629,0,0,1,6.748-1.512,14.577,14.577,0,0,1,3.818.468,8.294,8.294,0,0,1,2.888,1.355v-1.607h2.26v10.04h-2.26Zm0-3.495q0-1.6-2.049-2.787a9.218,9.218,0,0,0-4.724-1.19,9.633,9.633,0,0,0-4.942,1.19,3.443,3.443,0,0,0-2.042,2.951,3.32,3.32,0,0,0,2.033,2.833,9.74,9.74,0,0,0,4.885,1.155,9.194,9.194,0,0,0,4.8-1.216,3.482,3.482,0,0,0,2.042-2.935m-28.446-8.2,4.807,10.9,5.965-10.9H124.5l-7.391,13.287h-1.955l-4.791-10.843-4.8,10.843h-1.953l-7.426-13.287h2.329l5.939,10.9,4.834-10.9Zm209.119-14.206v-4.838h2.327V170.44h-2.327v-1.514a9.58,9.58,0,0,1-3.016,1.309,15.071,15.071,0,0,1-3.823.47,13.006,13.006,0,0,1-6.571-1.533q-2.676-1.532-2.673-3.76,0-2.21,2.641-3.719a13.142,13.142,0,0,1,6.6-1.511,15.126,15.126,0,0,1,3.88.462,8.829,8.829,0,0,1,2.96,1.345m.067,3.532a3.466,3.466,0,0,0-2.042-2.929,9.217,9.217,0,0,0-4.8-1.213,9.743,9.743,0,0,0-4.887,1.155,3.313,3.313,0,0,0-2.031,2.821,3.449,3.449,0,0,0,2.042,2.956,9.594,9.594,0,0,0,4.942,1.2,9.2,9.2,0,0,0,4.722-1.2q2.049-1.193,2.049-2.79m-21.149,3.33a7.912,7.912,0,0,1-2.925,1.361,15.483,15.483,0,0,1-3.981.493,13.142,13.142,0,0,1-6.6-1.511q-2.642-1.51-2.641-3.729,0-2.254,2.7-3.769a13.625,13.625,0,0,1,6.748-1.514,14.556,14.556,0,0,1,3.816.47,8.239,8.239,0,0,1,2.888,1.356V160.4h2.262v10.04H299.47Zm0-3.5q0-1.6-2.047-2.787a9.237,9.237,0,0,0-4.724-1.189,9.645,9.645,0,0,0-4.942,1.189,3.447,3.447,0,0,0-2.042,2.953,3.319,3.319,0,0,0,2.031,2.831,9.728,9.728,0,0,0,4.885,1.156,9.17,9.17,0,0,0,4.8-1.218,3.479,3.479,0,0,0,2.042-2.935m-34.171.166q0,1.607,2.042,2.8a9.137,9.137,0,0,0,4.7,1.19,9.6,9.6,0,0,0,4.942-1.2,3.452,3.452,0,0,0,2.042-2.956,3.314,3.314,0,0,0-2.033-2.821,9.7,9.7,0,0,0-4.869-1.155,9.164,9.164,0,0,0-4.83,1.2,3.452,3.452,0,0,0-1.992,2.937m0-8.37v4.937a10.73,10.73,0,0,1,3.2-1.442,15.185,15.185,0,0,1,3.89-.463,12.65,12.65,0,0,1,6.435,1.524q2.629,1.522,2.631,3.706,0,2.254-2.691,3.773A13.568,13.568,0,0,1,272,170.7a14.156,14.156,0,0,1-3.659-.442,10.53,10.53,0,0,1-3.046-1.337v1.514H263.02V157.151Zm-8.126,11.7a7.919,7.919,0,0,1-2.927,1.361,15.471,15.471,0,0,1-3.979.493,13.145,13.145,0,0,1-6.605-1.511q-2.642-1.51-2.641-3.729,0-2.254,2.7-3.769a13.627,13.627,0,0,1,6.75-1.514,14.565,14.565,0,0,1,3.816.47,8.266,8.266,0,0,1,2.888,1.356V160.4h2.26v10.04h-2.26Zm0-3.5q0-1.6-2.049-2.787a9.238,9.238,0,0,0-4.724-1.189,9.649,9.649,0,0,0-4.942,1.189,3.447,3.447,0,0,0-2.042,2.953,3.318,3.318,0,0,0,2.033,2.831,9.719,9.719,0,0,0,4.885,1.156,9.169,9.169,0,0,0,4.8-1.218,3.478,3.478,0,0,0,2.044-2.935m-21.317,5.085h-2.345V160.4h2.182v1.159a5.76,5.76,0,0,1,1.857-.979,8.533,8.533,0,0,1,2.356-.327l.018,1.4a6.537,6.537,0,0,0-3.124.725,2.211,2.211,0,0,0-.945,2Zm-7.527-5.7a4.652,4.652,0,0,0-2.413-2.548,10.458,10.458,0,0,0-4.571-.854,9.783,9.783,0,0,0-4.444.917,3.936,3.936,0,0,0-2.228,2.485Zm2.556,1.086H214.606a3.544,3.544,0,0,0,2.132,2.651,10.183,10.183,0,0,0,4.786,1.01,10.745,10.745,0,0,0,3.654-.585,5.766,5.766,0,0,0,2.508-1.633h2.625a7.852,7.852,0,0,1-3.5,2.558,14.156,14.156,0,0,1-5.221.893,13.185,13.185,0,0,1-6.659-1.56q-2.722-1.561-2.721-3.751,0-2.293,2.664-3.787a13.765,13.765,0,0,1,6.812-1.5,12.623,12.623,0,0,1,6.631,1.556,4.637,4.637,0,0,1,2.568,4.057Zm-23.673-3.841v-4.838h2.329V170.44h-2.329v-1.514a9.553,9.553,0,0,1-3.015,1.309,15.08,15.08,0,0,1-3.823.47,13,13,0,0,1-6.571-1.533q-2.678-1.532-2.673-3.76,0-2.21,2.641-3.719a13.133,13.133,0,0,1,6.6-1.511,15.114,15.114,0,0,1,3.878.462,8.814,8.814,0,0,1,2.96,1.345m.068,3.532a3.465,3.465,0,0,0-2.044-2.929,9.209,9.209,0,0,0-4.8-1.213,9.74,9.74,0,0,0-4.885,1.155,3.313,3.313,0,0,0-2.031,2.821,3.446,3.446,0,0,0,2.042,2.956,9.59,9.59,0,0,0,4.942,1.2,9.2,9.2,0,0,0,4.722-1.2q2.049-1.193,2.049-2.79M174.172,160.4h2.657l5.574,8.149,5.836-8.149h2.688l-9.737,13.289h-2.475l2.407-3.269Zm-15.391,10.04H156.42V157.151h2.361v5.96h11.345v-5.96h2.345V170.44h-2.345v-6.062H158.781Zm-17.416-5.7a4.643,4.643,0,0,0-2.412-2.548,10.465,10.465,0,0,0-4.573-.854,9.776,9.776,0,0,0-4.443.917,3.932,3.932,0,0,0-2.228,2.485Zm2.558,1.086H127.643a3.546,3.546,0,0,0,2.133,2.651,10.172,10.172,0,0,0,4.784,1.01,10.745,10.745,0,0,0,3.654-.585,5.766,5.766,0,0,0,2.507-1.633h2.625a7.838,7.838,0,0,1-3.5,2.558,14.172,14.172,0,0,1-5.223.893,13.19,13.19,0,0,1-6.659-1.56q-2.72-1.561-2.72-3.751,0-2.293,2.664-3.787a13.769,13.769,0,0,1,6.812-1.5,12.619,12.619,0,0,1,6.631,1.556,4.639,4.639,0,0,1,2.569,4.057Zm-36.466-8.679h2.277v4.43a7.379,7.379,0,0,1,2.4-1.034,13.194,13.194,0,0,1,3.14-.346q3.8,0,5.54,1.21a4.452,4.452,0,0,1,1.74,3.93v5.1h-2.278v-5.119a3.494,3.494,0,0,0-1.181-3.033,6.938,6.938,0,0,0-3.951-.854,9.793,9.793,0,0,0-2.764.353,4.537,4.537,0,0,0-1.875,1.007,2.223,2.223,0,0,0-.6.937,6.517,6.517,0,0,0-.174,1.828v4.882h-2.277Zm-6.8,13.289H98.312V158.457H93.538v-1.306H105.43v1.306h-4.773Z" transform="translate(15.059 -44.678)" fill-rule="evenodd"/>
      <path id="Path_101" data-name="Path 101" d="M38.285,115.732,32.7,128.485l26.159-.06L43.152,152.246c-4.8,7.336,18.818,19.489,37.643,26.228,10.387,5.413,17.684,6.895,22.524,12.632,5.157,6.113,2.158,17.515-13.177,24.184-17.569,7.64-55.557-7.7-52.964-26.83L25.822,213.244c5.968,18.346,55.428,24.724,67.5,13.294l31.22-29.472c7.594-7.163-.643-16.972-11.033-22.982-10.414-6.025-24.535-11.432-35.377-17.146-9.992-5.23-16.486-9.082-15.966-13.838C60.35,138.953,68.854,126.381,83,130.048c10.322,2.651,14.6,9.384,17.266,14.8l12.008-9.264c-.585-3-4.219-7.157-10.581-7.157h18.627l5.39-12.752Zm94.643-22.694,18.439-5.052-.068,89.148-18.437,11.492c0-6.436-.2-95.527.066-95.587m34.8,22.81L161.3,128.489h17.841l-17.356,19.395a20.815,20.815,0,0,0,3.052,27.581c7.749,7.054,16.535,9.249,26.215,9.51,8.468-.532,14.269-1.646,21.677-8.936,7.874-8.044,14.176-12.775,17.517-21.4,1.163-3,1.609-7.477-2.413-12.926-6.418-8.7-20.571-12.5-22.982-13.219h19.608l5.626-12.642Zm18.644,21.979c-5.628-.574-13.661,9.625-13.986,12.645a16.308,16.308,0,0,0,8.682,17.235c12.372,6.755,28.6,3.738,32.3-7.9,1.606-5.316,3.536-13.359-8.356-18.964-5.142-1.865-9.963-4.452-18.641-3.016M235.993,93.5l-.068,94.985,18.308-11.432V155.107l26.983,29.052c2.153,2.345,3.9,4.208,6.593,5.594,8.411,2.826,17.9,3.426,26.654,3.005L266.408,142.41,279.4,128.332l9.891-.057,5.992-12.577H267.35l-7.469,12.633,8.144-.119-13.793,14.739V88.273Zm108.8,59.377c-20.251.572-29.086,17.53-14.779,21.117,6.906.862,14.621-4.311,14.779-10.918Zm-36.962-37.063-5.945,12.643h15.1c-5.1,2.2-7.229,5.457-8.033,11.781l13.5,3.443c.942-6.171,4.339-15.115,13.657-15.172l8.679-.052.16,14.222c-71.993,6.748-23.461,71.829-.319,34.619v11.35l18.644-10.918V128.6h7.228l7.074-12.785Z" transform="translate(-25.822 -87.985)" fill-rule="evenodd"/>
    </g>
  </g>
</svg>
