<svg xmlns="http://www.w3.org/2000/svg" width="153.026" height="108.718" viewBox="0 0 153.026 108.718">
  <g id="Group_766" data-name="Group 766" transform="translate(-867.41 -11910.688)">
    <g id="Group_561" data-name="Group 561" transform="translate(870.898 11911.405)">
      <path id="Path_86" data-name="Path 86" d="M179.535,77.418c-3.415-30.485-35.5-54.324-74.369-54.324S34.212,46.933,30.8,77.418H38.61c3.631-26.208,32.234-46.753,66.6-46.753s62.966,20.545,66.6,46.753Z" transform="translate(-30.799 -23.094)" fill="#e50019" fill-rule="evenodd"/>
      <path id="Path_87" data-name="Path 87" d="M179.535,77.418c-3.415-30.485-35.5-54.324-74.369-54.324S34.212,46.933,30.8,77.418H38.61c3.631-26.208,32.234-46.753,66.6-46.753s62.966,20.545,66.6,46.753Z" transform="translate(-30.799 -23.094)" fill="none" stroke="#000" stroke-width="1.436"/>
      <path id="Path_88" data-name="Path 88" d="M175.138,80.651C171.507,54.443,142.9,33.9,108.542,33.9s-62.966,20.545-66.6,46.753h8.491c3.667-22.1,28.744-39.309,58.8-39.309s55.139,17.21,58.8,39.309Z" transform="translate(-34.134 -26.327)" fill="#f36a10" fill-rule="evenodd"/>
      <path id="Path_89" data-name="Path 89" d="M175.138,80.651C171.507,54.443,142.9,33.9,108.542,33.9s-62.966,20.545-66.6,46.753h8.491c3.667-22.1,28.744-39.309,58.8-39.309s55.139,17.21,58.8,39.309Z" transform="translate(-34.134 -26.327)" fill="none" stroke="#000" stroke-width="1.436"/>
      <path id="Path_90" data-name="Path 90" d="M171.67,83.829C168,61.73,142.926,44.52,112.865,44.52s-55.138,17.21-58.8,39.309h7.42c3.755-17.923,25.281-31.646,50.992-31.646s47.235,13.723,50.993,31.646Z" transform="translate(-37.759 -29.505)" fill="#ffd300" fill-rule="evenodd"/>
      <path id="Path_91" data-name="Path 91" d="M171.67,83.829C168,61.73,142.926,44.52,112.865,44.52s-55.138,17.21-58.8,39.309h7.42c3.755-17.923,25.281-31.646,50.992-31.646s47.235,13.723,50.993,31.646Z" transform="translate(-37.759 -29.505)" fill="none" stroke="#000" stroke-width="1.436"/>
      <path id="Path_92" data-name="Path 92" d="M166.634,87.1c-3.758-17.923-25.28-31.646-50.992-31.646S68.407,69.179,64.649,87.1h7.584c3.884-13.791,21.8-24.278,43.081-24.278S154.512,73.311,158.4,87.1Z" transform="translate(-40.928 -32.778)" fill="#00973d" fill-rule="evenodd"/>
      <path id="Path_93" data-name="Path 93" d="M166.634,87.1c-3.758-17.923-25.28-31.646-50.992-31.646S68.407,69.179,64.649,87.1h7.584c3.884-13.791,21.8-24.278,43.081-24.278S154.512,73.311,158.4,87.1Z" transform="translate(-40.928 -32.778)" fill="none" stroke="#000" stroke-width="1.436"/>
      <path id="Path_94" data-name="Path 94" d="M161.632,90.247c-3.882-13.791-21.794-24.278-43.081-24.278S79.356,76.457,75.47,90.247h7.366v-9.04l15.927-4.519v.49a54.075,54.075,0,0,1,19.266-3.389,52.679,52.679,0,0,1,21.485,4.32l-11.536,3.47,15.441-4.642v3.219c4.534,2.743,7.849,6.215,9.4,10.092Z" transform="translate(-44.166 -35.923)" fill="#00a1ed" fill-rule="evenodd"/>
      <path id="Path_95" data-name="Path 95" d="M161.632,90.247c-3.882-13.791-21.794-24.278-43.081-24.278S79.356,76.457,75.47,90.247h7.366v-9.04l15.927-4.519v.49a54.075,54.075,0,0,1,19.266-3.389,52.679,52.679,0,0,1,21.485,4.32l-11.536,3.47,15.441-4.642v3.219c4.534,2.743,7.849,6.215,9.4,10.092Z" transform="translate(-44.166 -35.923)" fill="none" stroke="#000" stroke-width="1.436"/>
      <path id="Path_96" data-name="Path 96" d="M149.462,81.448a52.7,52.7,0,0,0-21.488-4.322,54.044,54.044,0,0,0-19.263,3.391V93.584h29.142l.071-8.667Zm13.306,12.136c-1.554-3.875-4.868-7.347-9.4-10.091V93.584Z" transform="translate(-54.113 -39.262)" fill="#4e7abc" fill-rule="evenodd"/>
      <path id="Path_97" data-name="Path 97" d="M149.462,81.448a52.7,52.7,0,0,0-21.488-4.322,54.044,54.044,0,0,0-19.263,3.391V93.584h29.142l.071-8.667Zm13.306,12.136c-1.554-3.875-4.868-7.347-9.4-10.091V93.584Z" transform="translate(-54.113 -39.262)" fill="none" stroke="#000" stroke-width="1.435"/>
      <path id="Path_98" data-name="Path 98" d="M137.919,88.678a50.261,50.261,0,0,0-10.34-1.049,43.85,43.85,0,0,0-18.868,3.9v5.2h29.144Z" transform="translate(-54.113 -42.405)" fill="#6e0764" fill-rule="evenodd"/>
      <path id="Path_99" data-name="Path 99" d="M137.919,88.678a50.261,50.261,0,0,0-10.34-1.049,43.85,43.85,0,0,0-18.868,3.9v5.2h29.144Z" transform="translate(-54.113 -42.405)" fill="none" stroke="#000" stroke-width="1.435"/>
    </g>
    <g id="Group_562" data-name="Group 562" transform="translate(867.41 11956.881)" style="mix-blend-mode: normal;isolation: isolate">
      <path id="Path_100" data-name="Path 100" d="M189.9,165.358h1v5.727h-1Zm-9.208,3.568a1.928,1.928,0,0,1,1.172-1.629,5.468,5.468,0,0,1,2.779-.676,5.823,5.823,0,0,1,2.877.664,1.893,1.893,0,0,1,1.191,1.585,1.952,1.952,0,0,1-1.165,1.651,5.492,5.492,0,0,1-2.827.685,5.658,5.658,0,0,1-2.858-.671,1.907,1.907,0,0,1-1.17-1.609m1.046-.01a1.462,1.462,0,0,0,.854,1.254,4.126,4.126,0,0,0,2.127.5,4.047,4.047,0,0,0,2.1-.5,1.465,1.465,0,0,0,.846-1.261,1.445,1.445,0,0,0-.858-1.26,4.315,4.315,0,0,0-2.178-.495,3.91,3.91,0,0,0-2.037.507,1.467,1.467,0,0,0-.852,1.254m-9.816.01a1.929,1.929,0,0,1,1.172-1.629,5.466,5.466,0,0,1,2.779-.676,5.822,5.822,0,0,1,2.877.664,1.893,1.893,0,0,1,1.192,1.585,1.953,1.953,0,0,1-1.165,1.651,5.492,5.492,0,0,1-2.827.685,5.658,5.658,0,0,1-2.858-.671,1.909,1.909,0,0,1-1.17-1.609m1.047-.01a1.461,1.461,0,0,0,.854,1.254,4.126,4.126,0,0,0,2.127.5,4.053,4.053,0,0,0,2.1-.5,1.467,1.467,0,0,0,.847-1.261,1.446,1.446,0,0,0-.859-1.26,4.314,4.314,0,0,0-2.177-.495,3.911,3.911,0,0,0-2.038.507,1.466,1.466,0,0,0-.851,1.254m-8.714-3.558h.982v1.908a3.158,3.158,0,0,1,1.035-.445,5.61,5.61,0,0,1,1.353-.149,4.257,4.257,0,0,1,2.387.521,1.918,1.918,0,0,1,.751,1.694v2.2h-.982v-2.205a1.507,1.507,0,0,0-.509-1.308,2.986,2.986,0,0,0-1.7-.368,4.218,4.218,0,0,0-1.191.152,1.946,1.946,0,0,0-.808.434.952.952,0,0,0-.258.4,2.809,2.809,0,0,0-.075.788v2.1h-.982Zm-2.537,2.729a2.816,2.816,0,0,0-1.12-.7,4.875,4.875,0,0,0-1.572-.226,3.856,3.856,0,0,0-2.038.507,1.466,1.466,0,0,0-.837,1.254,1.451,1.451,0,0,0,.842,1.249,3.992,3.992,0,0,0,2.076.5,4.745,4.745,0,0,0,1.6-.247,2.314,2.314,0,0,0,1.052-.7h1.1a2.884,2.884,0,0,1-1.42,1.09,6.169,6.169,0,0,1-2.281.385,5.639,5.639,0,0,1-2.851-.667,1.7,1.7,0,0,1,.015-3.233,5.727,5.727,0,0,1,2.865-.666,6.05,6.05,0,0,1,2.228.379,3.059,3.059,0,0,1,1.444,1.068Zm-13.34,1.361h.975a1.027,1.027,0,0,0,.54.846,2.549,2.549,0,0,0,1.346.315,2.8,2.8,0,0,0,1.425-.313.954.954,0,0,0,.526-.849q0-.778-2.163-1.176l-.253-.047a4.656,4.656,0,0,1-1.628-.549,1,1,0,0,1-.5-.868,1.282,1.282,0,0,1,.767-1.121,3.972,3.972,0,0,1,1.982-.437,3.646,3.646,0,0,1,1.838.4,1.423,1.423,0,0,1,.755,1.116h-.955a1,1,0,0,0-.5-.722,2.2,2.2,0,0,0-1.137-.254,2.474,2.474,0,0,0-1.247.278.81.81,0,0,0-.484.706.562.562,0,0,0,.144.387,1.281,1.281,0,0,0,.463.3,7.184,7.184,0,0,0,1.245.3c.352.064.62.114.805.155a3.774,3.774,0,0,1,1.445.552,1.056,1.056,0,0,1,.441.883,1.536,1.536,0,0,1-.815,1.344,4.051,4.051,0,0,1-2.165.509,3.868,3.868,0,0,1-2.043-.481,1.5,1.5,0,0,1-.806-1.269m-6.28,1.636h-.968v-3.843h-1.039v-.483h1v-.118a1.082,1.082,0,0,1,.626-1.017,4.254,4.254,0,0,1,1.917-.331h.092v.5a3.069,3.069,0,0,0-1.268.2.67.67,0,0,0-.372.65v.118h1.641v.483H142.1Zm-4.537,0h-1.011v-4.327h.94v.5a2.475,2.475,0,0,1,.8-.422,3.707,3.707,0,0,1,1.016-.141l.007.6a2.809,2.809,0,0,0-1.346.313.95.95,0,0,0-.407.863Zm-10.19-2.158a1.928,1.928,0,0,1,1.172-1.629,5.468,5.468,0,0,1,2.779-.676,5.823,5.823,0,0,1,2.877.664,1.892,1.892,0,0,1,1.191,1.585,1.952,1.952,0,0,1-1.165,1.651,5.492,5.492,0,0,1-2.827.685,5.658,5.658,0,0,1-2.858-.671,1.907,1.907,0,0,1-1.17-1.609m1.047-.01a1.462,1.462,0,0,0,.853,1.254,4.131,4.131,0,0,0,2.128.5,4.049,4.049,0,0,0,2.1-.5,1.465,1.465,0,0,0,.847-1.261,1.445,1.445,0,0,0-.858-1.26,4.314,4.314,0,0,0-2.177-.495,3.915,3.915,0,0,0-2.039.507,1.466,1.466,0,0,0-.851,1.254m-3.2-1.474v-2.084h1v5.726h-1v-.652a4.115,4.115,0,0,1-1.3.564,6.494,6.494,0,0,1-1.647.2,5.6,5.6,0,0,1-2.831-.661,1.9,1.9,0,0,1-1.153-1.62,1.873,1.873,0,0,1,1.139-1.6,5.662,5.662,0,0,1,2.846-.65,6.549,6.549,0,0,1,1.671.2,3.815,3.815,0,0,1,1.275.58m.029,1.522a1.491,1.491,0,0,0-.881-1.261,3.964,3.964,0,0,0-2.067-.523,4.2,4.2,0,0,0-2.106.5,1.43,1.43,0,0,0-.875,1.217,1.488,1.488,0,0,0,.881,1.274,4.14,4.14,0,0,0,2.129.515,3.974,3.974,0,0,0,2.036-.515,1.449,1.449,0,0,0,.883-1.2m-9.172-3.606h1v5.727h-1Zm-2.563,5.041a3.415,3.415,0,0,1-1.261.587,6.667,6.667,0,0,1-1.715.212,5.666,5.666,0,0,1-2.847-.651,1.71,1.71,0,0,1,.025-3.231,5.874,5.874,0,0,1,2.908-.652,6.28,6.28,0,0,1,1.645.2,3.574,3.574,0,0,1,1.245.584v-.692h.974v4.327h-.974Zm0-1.506a1.445,1.445,0,0,0-.883-1.2,3.973,3.973,0,0,0-2.036-.513,4.151,4.151,0,0,0-2.13.513,1.484,1.484,0,0,0-.88,1.272,1.431,1.431,0,0,0,.876,1.221,4.2,4.2,0,0,0,2.105.5,3.962,3.962,0,0,0,2.067-.524,1.5,1.5,0,0,0,.88-1.265m-12.259-3.535,2.071,4.7,2.57-4.7h.989l-3.185,5.726h-.842l-2.064-4.673-2.069,4.673h-.842l-3.2-5.726h1l2.559,4.7,2.083-4.7Zm90.119-6.122v-2.085h1v5.727h-1v-.652a4.129,4.129,0,0,1-1.3.564,6.494,6.494,0,0,1-1.647.2,5.6,5.6,0,0,1-2.832-.661,1.9,1.9,0,0,1-1.152-1.62,1.872,1.872,0,0,1,1.138-1.6,5.663,5.663,0,0,1,2.846-.651,6.52,6.52,0,0,1,1.672.2,3.805,3.805,0,0,1,1.275.58m.029,1.522a1.494,1.494,0,0,0-.88-1.262,3.973,3.973,0,0,0-2.067-.523,4.2,4.2,0,0,0-2.106.5,1.428,1.428,0,0,0-.875,1.216,1.486,1.486,0,0,0,.88,1.274,4.134,4.134,0,0,0,2.13.516,3.967,3.967,0,0,0,2.035-.516,1.448,1.448,0,0,0,.883-1.2m-9.114,1.435a3.408,3.408,0,0,1-1.261.587,6.671,6.671,0,0,1-1.716.212,5.664,5.664,0,0,1-2.846-.651,1.71,1.71,0,0,1,.025-3.231,5.871,5.871,0,0,1,2.908-.652,6.273,6.273,0,0,1,1.645.2,3.551,3.551,0,0,1,1.245.584v-.693h.975v4.327h-.975Zm0-1.507a1.447,1.447,0,0,0-.882-1.2,3.98,3.98,0,0,0-2.036-.512,4.156,4.156,0,0,0-2.13.512,1.485,1.485,0,0,0-.88,1.273,1.43,1.43,0,0,0,.875,1.22,4.192,4.192,0,0,0,2.105.5,3.952,3.952,0,0,0,2.067-.525,1.5,1.5,0,0,0,.88-1.265m-14.726.071a1.449,1.449,0,0,0,.88,1.205,3.937,3.937,0,0,0,2.024.513,4.136,4.136,0,0,0,2.13-.516,1.488,1.488,0,0,0,.88-1.274,1.428,1.428,0,0,0-.876-1.216,4.179,4.179,0,0,0-2.1-.5,3.949,3.949,0,0,0-2.081.519,1.488,1.488,0,0,0-.858,1.266m0-3.607v2.128a4.623,4.623,0,0,1,1.377-.622,6.542,6.542,0,0,1,1.676-.2,5.451,5.451,0,0,1,2.773.657,1.706,1.706,0,0,1-.026,3.223,5.847,5.847,0,0,1-2.911.655,6.1,6.1,0,0,1-1.577-.191,4.538,4.538,0,0,1-1.313-.576v.652h-.982v-5.727Zm-3.5,5.042a3.411,3.411,0,0,1-1.261.587,6.666,6.666,0,0,1-1.715.212,5.665,5.665,0,0,1-2.847-.651,1.71,1.71,0,0,1,.025-3.231,5.872,5.872,0,0,1,2.909-.652,6.278,6.278,0,0,1,1.645.2,3.562,3.562,0,0,1,1.245.584v-.693h.974v4.327h-.974Zm0-1.507a1.446,1.446,0,0,0-.883-1.2,3.981,3.981,0,0,0-2.036-.512,4.158,4.158,0,0,0-2.13.512,1.485,1.485,0,0,0-.88,1.273,1.43,1.43,0,0,0,.876,1.22,4.188,4.188,0,0,0,2.105.5,3.951,3.951,0,0,0,2.067-.525,1.5,1.5,0,0,0,.881-1.265m-9.186,2.191h-1.01v-4.327h.94v.5a2.483,2.483,0,0,1,.8-.422,3.679,3.679,0,0,1,1.015-.141l.008.6a2.817,2.817,0,0,0-1.346.313.953.953,0,0,0-.407.863Zm-3.244-2.455a2,2,0,0,0-1.04-1.1,4.508,4.508,0,0,0-1.97-.368,4.216,4.216,0,0,0-1.915.4,1.7,1.7,0,0,0-.96,1.071Zm1.1.468h-7.015a1.527,1.527,0,0,0,.919,1.142,4.389,4.389,0,0,0,2.062.435,4.63,4.63,0,0,0,1.575-.252,2.485,2.485,0,0,0,1.081-.7h1.131a3.384,3.384,0,0,1-1.507,1.1,6.1,6.1,0,0,1-2.25.385,5.683,5.683,0,0,1-2.87-.672,1.917,1.917,0,0,1-1.172-1.617,1.881,1.881,0,0,1,1.148-1.632,5.932,5.932,0,0,1,2.936-.645,5.44,5.44,0,0,1,2.858.671,2,2,0,0,1,1.106,1.748Zm-10.2-1.655v-2.085h1v5.727h-1v-.652a4.117,4.117,0,0,1-1.3.564,6.5,6.5,0,0,1-1.648.2,5.6,5.6,0,0,1-2.832-.661,1.9,1.9,0,0,1-1.152-1.62,1.872,1.872,0,0,1,1.138-1.6,5.659,5.659,0,0,1,2.846-.651,6.515,6.515,0,0,1,1.671.2,3.8,3.8,0,0,1,1.275.58m.029,1.522a1.493,1.493,0,0,0-.881-1.262,3.969,3.969,0,0,0-2.067-.523,4.2,4.2,0,0,0-2.105.5,1.428,1.428,0,0,0-.875,1.216,1.485,1.485,0,0,0,.88,1.274,4.133,4.133,0,0,0,2.13.516,3.967,3.967,0,0,0,2.035-.516,1.448,1.448,0,0,0,.883-1.2m-14.268-2.207h1.145l2.4,3.512,2.515-3.512h1.158l-4.2,5.727h-1.067l1.037-1.409Zm-6.633,4.327h-1.018v-5.727h1.018v2.568h4.889v-2.568h1.011v5.727h-1.011v-2.613h-4.889Zm-7.505-2.455a2,2,0,0,0-1.039-1.1,4.511,4.511,0,0,0-1.971-.368,4.213,4.213,0,0,0-1.915.4,1.7,1.7,0,0,0-.96,1.071Zm1.1.468h-7.016a1.528,1.528,0,0,0,.919,1.142,4.384,4.384,0,0,0,2.062.435,4.631,4.631,0,0,0,1.575-.252,2.485,2.485,0,0,0,1.081-.7H115a3.377,3.377,0,0,1-1.507,1.1,6.107,6.107,0,0,1-2.251.385,5.685,5.685,0,0,1-2.87-.672,1.918,1.918,0,0,1-1.172-1.617,1.883,1.883,0,0,1,1.148-1.632,5.933,5.933,0,0,1,2.936-.645,5.438,5.438,0,0,1,2.858.671,2,2,0,0,1,1.107,1.748Zm-15.715-3.74h.981v1.909a3.179,3.179,0,0,1,1.035-.446,5.685,5.685,0,0,1,1.353-.149,4.254,4.254,0,0,1,2.388.521,1.919,1.919,0,0,1,.75,1.694v2.2h-.982v-2.206a1.506,1.506,0,0,0-.509-1.307,2.99,2.99,0,0,0-1.7-.368,4.221,4.221,0,0,0-1.191.152,1.956,1.956,0,0,0-.808.434.958.958,0,0,0-.258.4,2.808,2.808,0,0,0-.075.788v2.1h-.981Zm-2.931,5.727H95.6v-5.164H93.538v-.563h5.125v.563H96.606Z" transform="translate(-46.085 -108.681)" fill="#fff" fill-rule="evenodd"/>
      <path id="Path_101" data-name="Path 101" d="M31.216,99.942l-2.418,5.5,11.322-.026-6.8,10.266c-2.078,3.161,8.144,8.4,16.292,11.3,4.5,2.333,7.654,2.971,9.748,5.444,2.232,2.634.934,7.548-5.7,10.422-7.6,3.292-24.046-3.317-22.923-11.562l-4.915,10.681c2.583,7.906,23.989,10.655,29.215,5.729l13.512-12.7c3.287-3.087-.278-7.314-4.775-9.9s-10.619-4.926-15.311-7.389c-4.324-2.254-7.135-3.914-6.91-5.964-.787-1.787,2.893-7.2,9.017-5.624a10.927,10.927,0,0,1,7.473,6.377l5.2-3.992a4.467,4.467,0,0,0-4.58-3.084h8.062l2.333-5.5Zm40.962-9.78,7.98-2.177L80.129,126.4l-7.98,4.952c0-2.774-.088-41.167.029-41.193m15.062,9.83-2.783,5.448h7.722L84.666,113.8a8.943,8.943,0,0,0,1.321,11.886c3.354,3.04,7.156,3.986,11.346,4.1,3.665-.229,6.176-.709,9.382-3.851,3.408-3.467,6.135-5.505,7.582-9.224.5-1.294.7-3.222-1.044-5.57-2.778-3.748-8.9-5.387-9.947-5.7h8.486l2.435-5.448Zm8.069,9.472c-2.436-.247-5.912,4.148-6.053,5.449a7.022,7.022,0,0,0,3.758,7.428c5.355,2.911,12.38,1.611,13.98-3.4.7-2.291,1.53-5.757-3.617-8.172-2.226-.8-4.312-1.919-8.068-1.3m21.476-19.1-.029,40.934,7.924-4.926v-9.46l11.678,12.52a10.075,10.075,0,0,0,2.854,2.411,32.185,32.185,0,0,0,11.536,1.3l-20.8-21.7,5.622-6.067,4.281-.025,2.594-5.42H130.357l-3.233,5.444,3.525-.051-5.97,6.352V88.109Zm47.09,25.588c-8.765.247-12.589,7.554-6.4,9.1,2.989.371,6.328-1.858,6.4-4.7Zm-16-15.972-2.573,5.449h6.538c-2.209.949-3.129,2.352-3.477,5.077l5.842,1.484c.408-2.659,1.878-6.514,5.911-6.538l3.756-.022.069,6.129c-31.159,2.908-10.154,30.955-.138,14.919v4.891l8.069-4.705V105.489H175l3.062-5.51Z" transform="translate(-25.822 -87.985)" fill="#fff" fill-rule="evenodd"/>
    </g>
  </g>
</svg>
