<svg id="noun-phone-5895494" xmlns="http://www.w3.org/2000/svg" width="27.669" height="27.668" viewBox="0 0 27.669 27.668">
  <path id="Path_18913" data-name="Path 18913" d="M21.557,22.492a27.462,27.462,0,0,0,4.258,2.063,22.494,22.494,0,0,0,4.237,1.163q.061-.415.108-.759l0-.012a1.75,1.75,0,0,0-.277-1.138,2.068,2.068,0,0,0-.984-.821l-4.434-1.751a2.3,2.3,0,0,0-1.366-.133,1.719,1.719,0,0,0-1,.656ZM9.447,11.674l-.6.445a1.686,1.686,0,0,0-.622,1.845A15.893,15.893,0,0,0,12.31,20.37a15.883,15.883,0,0,0,6.406,4.083,1.686,1.686,0,0,0,1.845-.622l.445-.6a28.463,28.463,0,0,0,4.484,2.183,23.411,23.411,0,0,0,4.418,1.211q-.092.57-.213,1.23a2.326,2.326,0,0,1-.57,1.189,2.281,2.281,0,0,1-1.138.646,17.064,17.064,0,0,1-8.354-.067A22.972,22.972,0,0,1,9.163,23.516,22.993,22.993,0,0,1,3.054,13.044,17.065,17.065,0,0,1,2.988,4.69a2.281,2.281,0,0,1,.646-1.138,2.326,2.326,0,0,1,1.189-.57q.661-.12,1.23-.213A23.389,23.389,0,0,0,7.263,7.187a28.464,28.464,0,0,0,2.183,4.484ZM6.962,2.628A22.494,22.494,0,0,0,8.125,6.865a27.461,27.461,0,0,0,2.062,4.258l.73-.542a1.722,1.722,0,0,0,.656-1,2.3,2.3,0,0,0-.133-1.366L9.693,3.779A2.07,2.07,0,0,0,8.872,2.8,1.748,1.748,0,0,0,7.721,2.52h0Q7.375,2.566,6.962,2.628Z" transform="translate(-2.501 -2.509)" fill-rule="evenodd"/>
</svg>
