<?xml version="1.0" encoding="utf-8"?>
<!-- Generator: Adobe Illustrator 22.0.1, SVG Export Plug-In . SVG Version: 6.00 Build 0)  -->
<svg version="1.1" id="Layer_1" xmlns="http://www.w3.org/2000/svg" xmlns:xlink="http://www.w3.org/1999/xlink" x="0px" y="0px"
	 viewBox="0 0 35 35" style="enable-background:new 0 0 35 35;" xml:space="preserve">
<style type="text/css">
	.st0{fill:#39145F;}
	.st1{fill:#FFFFFF;}
</style>
<g id="Group_1113" transform="translate(-215.677 -2048.204)">
	<circle id="Ellipse_103" class="st0" cx="233.2" cy="2065.8" r="17.5"/>
</g>
<g>
	<path class="st1" d="M21,11c0.9,0.8,1.3,1.9,1.3,3.3c0,1.5-0.5,2.7-1.4,3.4c-1,0.7-2.2,1.1-3.9,1.1L16.9,21h-1.7l-0.1-3.5h0.6
		c1.5,0,2.6-0.2,3.4-0.7c0.8-0.4,1.2-1.3,1.2-2.5c0-0.9-0.3-1.6-0.8-2.1c-0.5-0.5-1.2-0.8-2.1-0.8c-0.9,0-1.6,0.2-2.1,0.7
		s-0.8,1.2-0.8,2h-1.9c0-0.9,0.2-1.7,0.6-2.3c0.4-0.7,1-1.2,1.7-1.6c0.7-0.4,1.6-0.6,2.5-0.6C18.9,9.8,20.1,10.2,21,11z M15.1,25.1
		c-0.3-0.3-0.4-0.6-0.4-1c0-0.4,0.1-0.7,0.4-1s0.6-0.4,1-0.4c0.4,0,0.7,0.1,0.9,0.4c0.3,0.3,0.4,0.6,0.4,1c0,0.4-0.1,0.7-0.4,1
		c-0.3,0.3-0.6,0.4-0.9,0.4C15.7,25.5,15.3,25.4,15.1,25.1z"/>
</g>
</svg>
