<?xml version="1.0" encoding="utf-8"?>
<!-- Generator: Adobe Illustrator 28.1.0, SVG Export Plug-In . SVG Version: 6.00 Build 0)  -->
<svg version="1.1" id="Layer_1" xmlns="http://www.w3.org/2000/svg" xmlns:xlink="http://www.w3.org/1999/xlink" x="0px" y="0px"
	 viewBox="0 0 32 32" style="enable-background:new 0 0 32 32;" xml:space="preserve">
<style type="text/css">
	.st0{fill-rule:evenodd;clip-rule:evenodd;fill:#881477;}
	.st1{fill-rule:evenodd;clip-rule:evenodd;fill:#ED1C24;}
	.st2{fill:none;stroke:#000000;stroke-width:1.0443;stroke-miterlimit:22.926;}
	.st3{fill-rule:evenodd;clip-rule:evenodd;fill:#F58220;}
	.st4{fill-rule:evenodd;clip-rule:evenodd;fill:#FFDD00;}
	.st5{fill-rule:evenodd;clip-rule:evenodd;fill:#00A651;}
	.st6{fill-rule:evenodd;clip-rule:evenodd;fill:#00AEEF;}
	.st7{fill-rule:evenodd;clip-rule:evenodd;fill:#6C8CC7;}
	.st8{fill:none;stroke:#000000;stroke-width:1.0433;stroke-miterlimit:22.926;}
	.st9{fill-rule:evenodd;clip-rule:evenodd;}
	.st10{fill-rule:evenodd;clip-rule:evenodd;fill:none;}
	.st11{clip-path:url(#SVGID_00000002378482729075890060000004685335883812844724_);}
	.st12{fill:none;stroke:#000000;stroke-width:0.5122;stroke-miterlimit:22.926;}
	.st13{fill-rule:evenodd;clip-rule:evenodd;fill:none;stroke:#000000;stroke-width:0.4497;stroke-miterlimit:22.926;}
	.st14{fill-rule:evenodd;clip-rule:evenodd;fill:none;stroke:#000000;stroke-width:0.5122;stroke-miterlimit:22.926;}
	.st15{fill-rule:evenodd;clip-rule:evenodd;fill:none;stroke:#000000;stroke-width:0.4398;stroke-miterlimit:22.926;}
	.st16{clip-path:url(#SVGID_00000170248094820647145820000013867194285575223684_);}
	.st17{fill:none;stroke:#000000;stroke-width:0.2127;stroke-miterlimit:22.926;}
	.st18{fill:none;stroke:#000000;stroke-width:0.2125;stroke-miterlimit:22.926;}
	.st19{fill-rule:evenodd;clip-rule:evenodd;fill:#FFFFFF;}
	.st20{fill:none;stroke:#000000;stroke-width:0.1987;stroke-miterlimit:22.926;}
	.st21{fill:none;stroke:#000000;stroke-width:0.1985;stroke-miterlimit:22.926;}
</style>
<ellipse transform="matrix(9.701368e-03 -1 1 9.701368e-03 41.3917 102.9689)" class="st0" cx="72.7" cy="30.6" rx="12.5" ry="16"/>
<g>
	<path class="st1" d="M293.4-13.1c-3.5-31.9-36.6-56.8-76.6-56.8c-40,0-73.1,24.9-76.6,56.8h8C152-40.5,181.4-62,216.8-62
		c35.4,0,64.8,21.5,68.6,48.9H293.4z"/>
	<path class="st2" d="M293.4-13.1c-3.5-31.9-36.6-56.8-76.6-56.8c-40,0-73.1,24.9-76.6,56.8h8C152-40.5,181.4-62,216.8-62
		c35.4,0,64.8,21.5,68.6,48.9H293.4z"/>
	<path class="st3" d="M285.4-13.1C281.7-40.5,252.2-62,216.8-62c-35.4,0-64.8,21.5-68.6,48.9h8.7c3.8-23.1,29.6-41.1,60.6-41.1
		s56.8,18,60.6,41.1H285.4z"/>
	<path class="st2" d="M285.4-13.1C281.7-40.5,252.2-62,216.8-62c-35.4,0-64.8,21.5-68.6,48.9h8.7c3.8-23.1,29.6-41.1,60.6-41.1
		s56.8,18,60.6,41.1H285.4z"/>
	<path class="st4" d="M278.1-13.1c-3.8-23.1-29.6-41.1-60.6-41.1s-56.8,18-60.6,41.1h7.6c3.9-18.7,26-33.1,52.5-33.1
		s48.6,14.3,52.5,33.1H278.1z"/>
	<path class="st2" d="M278.1-13.1c-3.8-23.1-29.6-41.1-60.6-41.1s-56.8,18-60.6,41.1h7.6c3.9-18.7,26-33.1,52.5-33.1
		s48.6,14.3,52.5,33.1H278.1z"/>
	<path class="st5" d="M269.7-13.1c-3.9-18.7-26-33.1-52.5-33.1c-26.5,0-48.6,14.3-52.5,33.1h7.8c4-14.4,22.4-25.4,44.4-25.4
		c21.9,0,40.4,11,44.4,25.4H269.7z"/>
	<path class="st2" d="M269.7-13.1c-3.9-18.7-26-33.1-52.5-33.1c-26.5,0-48.6,14.3-52.5,33.1h7.8c4-14.4,22.4-25.4,44.4-25.4
		c21.9,0,40.4,11,44.4,25.4H269.7z"/>
	<path class="st6" d="M261.2-13.1c-4-14.4-22.4-25.4-44.4-25.4s-40.4,11-44.4,25.4h7.6v-9.4l16.4-4.7v0.5c5.7-2.2,12.5-3.5,19.8-3.5
		c8.3,0,16,1.7,22.1,4.5l-11.9,3.6l15.9-4.9v3.4c4.7,2.9,8.1,6.5,9.7,10.5H261.2z"/>
	<path class="st2" d="M261.2-13.1c-4-14.4-22.4-25.4-44.4-25.4s-40.4,11-44.4,25.4h7.6v-9.4l16.4-4.7v0.5c5.7-2.2,12.5-3.5,19.8-3.5
		c8.3,0,16,1.7,22.1,4.5l-11.9,3.6l15.9-4.9v3.4c4.7,2.9,8.1,6.5,9.7,10.5H261.2z"/>
	<path class="st7" d="M238.4-25.8c-6.2-2.8-13.8-4.5-22.1-4.5c-7.3,0-14.1,1.3-19.8,3.5v13.7h30l0.1-9.1L238.4-25.8z M252.1-13.1
		c-1.6-4-5-7.7-9.7-10.5v10.5H252.1z"/>
	<path class="st8" d="M238.4-25.8c-6.2-2.8-13.8-4.5-22.1-4.5c-7.3,0-14.1,1.3-19.8,3.5v13.7h30l0.1-9.1L238.4-25.8z M252.1-13.1
		c-1.6-4-5-7.7-9.7-10.5v10.5H252.1z"/>
	<path class="st0" d="M226.5-21.5c-3.3-0.7-6.9-1.1-10.6-1.1c-7.5,0-14.4,1.6-19.4,4.1v5.4h30L226.5-21.5z"/>
	<path class="st8" d="M226.5-21.5c-3.3-0.7-6.9-1.1-10.6-1.1c-7.5,0-14.4,1.6-19.4,4.1v5.4h30L226.5-21.5z"/>
	<text transform="matrix(1 0 0 1 185.5501 44.3572)" style="font-family:'ArialMT'; font-size:10.8377px;">WALDORF SCHOOL</text>
	<text transform="matrix(1 0 0 1 185.5501 34.4996)" style="font-family:'ArialMT'; font-size:11.1953px;">THE HYDERABAD</text>
	<path class="st9" d="M142.2-9.9l-2.5,5.7l11.7,0l-7,10.7c-2.1,3.3,8.4,8.8,16.8,11.8c4.6,2.4,7.9,3.1,10,5.7
		c2.3,2.8,1,7.9-5.9,10.9c-7.8,3.4-24.8-3.5-23.6-12.1l-5.1,11.2c2.7,8.3,24.7,11.1,30.1,6l13.9-13.3c3.4-3.2-0.3-7.6-4.9-10.4
		c-4.6-2.7-10.9-5.1-15.8-7.7c-4.5-2.4-7.3-4.1-7.1-6.2c-0.8-1.9,3-7.5,9.3-5.9c4.6,1.2,6.5,4.2,7.7,6.7l5.4-4.2
		c-0.3-1.4-1.9-3.2-4.7-3.2h8.3l2.4-5.7L142.2-9.9z M184.3-20.1l8.2-2.3l0,40.2l-8.2,5.2C184.3,20.1,184.2-20,184.3-20.1z
		 M199.9-9.8L197-4.1h8l-7.7,8.7c-2.9,4.2-1.9,9.4,1.4,12.4c3.5,3.2,7.4,4.2,11.7,4.3c3.8-0.2,6.4-0.7,9.7-4
		c3.5-3.6,6.3-5.8,7.8-9.6c0.5-1.4,0.7-3.4-1.1-5.8c-2.9-3.9-9.2-5.6-10.2-6h8.7l2.5-5.7H199.9z M208.2,0.1
		c-2.5-0.3-6.1,4.3-6.2,5.7c-0.6,4.5,2.3,6.9,3.9,7.8c5.5,3,12.7,1.7,14.4-3.6c0.7-2.4,1.6-6-3.7-8.5C214.2,0.6,212-0.5,208.2,0.1z
		 M230.3-19.9l0,42.8l8.2-5.1V7.9l12,13.1c1,1.1,1.7,1.9,2.9,2.5c3.7,1.3,8,1.5,11.9,1.4L243.8,2.2l5.8-6.3l4.4,0l2.7-5.7h-12.4
		l-3.3,5.7l3.6-0.1l-6.1,6.6v-24.6L230.3-19.9z M278.8,6.9c-9,0.3-13,7.9-6.6,9.5c3.1,0.4,6.5-1.9,6.6-4.9V6.9z M262.3-9.8l-2.7,5.7
		h6.7c-2.3,1-3.2,2.5-3.6,5.3l6,1.6c0.4-2.8,1.9-6.8,6.1-6.8l3.9,0l0.1,6.4c-32.1,3-10.5,32.4-0.1,15.6V23l8.3-4.9V-4.1h3.2l3.2-5.8
		H262.3z"/>
	<rect x="116.7" y="-84.1" class="st10" width="196.6" height="146.3"/>
</g>
<path class="st9" d="M45.8-31.6l-1.5,3.4l12.9,0l-4.2,6.4c-1.3,2,5,5.2,10,7c2.7,1.4,4.7,1.8,6,3.4c1.4,1.6,0.6,4.7-3.5,6.5
	c-4.6,2-14.7-2.1-14-7.2l-3,6.6c1.6,4.9,14.7,6.6,17.9,3.6l8.3-7.9c2-1.9-0.2-4.5-2.9-6.1c-2.8-1.6-6.5-3.1-9.4-4.6
	c-2.6-1.4-4.4-2.4-4.2-3.7c-0.5-1.1,1.8-4.5,5.5-3.5c2.7,0.7,3.9,2.5,4.6,4l3.2-2.5c-0.2-0.8-1.1-1.9-2.8-1.9h9.9l1.4-3.4L45.8-31.6
	z"/>
<polyline class="st1" points="46,-31.6 46,-28.2 50.6,-28.2 50.6,-31.6 46,-31.6 "/>
<polyline class="st3" points="50.6,-31.6 50.6,-28.2 55.2,-28.2 55.2,-31.6 50.6,-31.6 "/>
<polyline class="st4" points="55.1,-31.6 55.1,-28.2 59.8,-28.2 59.8,-31.6 55.1,-31.6 "/>
<polyline class="st5" points="59.7,-31.6 59.7,-28.2 64.3,-28.2 64.3,-31.6 59.7,-31.6 "/>
<polyline class="st6" points="64.2,-31.6 64.2,-28.2 68.9,-28.2 68.9,-31.6 64.2,-31.6 "/>
<polyline class="st7" points="68.8,-31.6 68.8,-28.2 73.4,-28.2 73.4,-31.6 68.8,-31.6 "/>
<polyline class="st0" points="73.4,-31.6 73.4,-28.2 78,-28.2 78,-31.6 73.4,-31.6 "/>
<g>
	<defs>
		<rect id="SVGID_1_" x="0" width="32" height="32"/>
	</defs>
	<use xlink:href="#SVGID_1_"  style="overflow:visible;fill-rule:evenodd;clip-rule:evenodd;fill:#FFFFFF;"/>
	<clipPath id="SVGID_00000040568143068092829190000016469230069477439879_">
		<use xlink:href="#SVGID_1_"  style="overflow:visible;"/>
	</clipPath>
	<g style="clip-path:url(#SVGID_00000040568143068092829190000016469230069477439879_);">
		<path class="st1" d="M66.8,31.8C65.3,14.1,50.9,0.3,33.6,0.3C16.2,0.3,1.9,14.1,0.3,31.8h3.5C5.5,16.6,18.2,4.7,33.6,4.7
			c15.4,0,28.1,11.9,29.8,27.1H66.8z"/>
		<path class="st12" d="M66.8,31.8C65.3,14.1,50.9,0.3,33.6,0.3C16.2,0.3,1.9,14.1,0.3,31.8h3.5C5.5,16.6,18.2,4.7,33.6,4.7
			c15.4,0,28.1,11.9,29.8,27.1H66.8z"/>
		<path class="st3" d="M63.4,31.8C61.7,16.6,48.9,4.7,33.6,4.7C18.2,4.7,5.5,16.6,3.8,31.8h3.8C9.3,19,20.5,9,33.9,9
			s24.6,10,26.3,22.8H63.4z"/>
		<path class="st12" d="M63.4,31.8C61.7,16.6,48.9,4.7,33.6,4.7C18.2,4.7,5.5,16.6,3.8,31.8h3.8C9.3,19,20.5,9,33.9,9
			s24.6,10,26.3,22.8H63.4z"/>
		<path class="st4" d="M60.2,31.8C58.5,19,47.3,9,33.9,9S9.3,19,7.6,31.8h3.3c1.7-10.4,11.3-18.3,22.8-18.3s21.1,8,22.8,18.3H60.2z"
			/>
		<path class="st12" d="M60.2,31.8C58.5,19,47.3,9,33.9,9S9.3,19,7.6,31.8h3.3c1.7-10.4,11.3-18.3,22.8-18.3s21.1,8,22.8,18.3H60.2z
			"/>
		<path class="st5" d="M56.5,31.8c-1.7-10.4-11.3-18.3-22.8-18.3c-11.5,0-21.1,8-22.8,18.3h3.4c1.7-8,9.7-14.1,19.3-14.1
			c9.5,0,17.5,6.1,19.3,14.1H56.5z"/>
		<path class="st12" d="M56.5,31.8c-1.7-10.4-11.3-18.3-22.8-18.3c-11.5,0-21.1,8-22.8,18.3h3.4c1.7-8,9.7-14.1,19.3-14.1
			c9.5,0,17.5,6.1,19.3,14.1H56.5z"/>
		<path class="st7" d="M51.9,40.1c-1.3-10.7-9.1-18.6-18.1-18.6c-7.4,0-12.2,4.1-15.1,10.3h3.2c2.4-3.9,6.4-7,12.1-7
			c7.4,0,12,3.6,14.7,15.3H51.9z"/>
		<path class="st13" d="M51.9,40.1C50.6,29.4,43.1,21.6,34,21.4c-8.2-0.3-13.7,5.4-15.1,10.5h3.2c2.3-3.8,6.3-6.9,11.8-6.9
			c7.4,0,12,3.5,14.7,15.3H51.9z"/>
		<path class="st6" d="M55.1,38.1c-1.6-11.7-10.7-20.6-21.5-20.6c-11.1,0-18.7,8.7-18.7,14.3h3.6c1.7-4.2,5.5-10.5,15.8-10.4
			c8.8,0.1,13.7,4,17,16.7H55.1z"/>
		<path class="st14" d="M55.1,38.1c-1.6-11.7-10.7-20.4-21.5-20.4c-12.5,0-18.8,9.8-18.8,14.1h3.8c1.8-5.2,6.8-10.4,14.8-10.4
			c8.8,0,14.6,3.9,17.8,16.7H55.1z"/>
		<path class="st0" d="M50.4,44.7C49.2,33.4,42,25.2,33.7,25.1c-6.7,0-10.3,4.8-11.3,6.7h2.9c6.6,0.2,2.4,0,10.4,0.1
			c6.7,0,9.2,0.5,11.7,12.8H50.4z"/>
		<path class="st15" d="M50.4,44.7c-1.2-11.2-8.2-20.1-16.5-19.8c-6.8,0.2-10.3,4.6-11.5,6.9h9.9c9.2-0.1,0.1,0,7,0
			c6.7,0,5.6,0.6,8.1,12.9H50.4z"/>
	</g>
</g>
<g>
	<defs>
		<path id="SVGID_00000044867009293602989070000007624750094693849783_" d="M-111.4,22.1H-139c-1.2,0-2.2-1-2.2-2.2V-7.7
			c0-1.2,1-2.2,2.2-2.2h27.6c1.2,0,2.2,1,2.2,2.2v27.6C-109.2,21.1-110.2,22.1-111.4,22.1z"/>
	</defs>
	
		<use xlink:href="#SVGID_00000044867009293602989070000007624750094693849783_"  style="overflow:visible;fill-rule:evenodd;clip-rule:evenodd;fill:#FFFFFF;"/>
	<clipPath id="SVGID_00000041290313128389263020000017619479130008538531_">
		<use xlink:href="#SVGID_00000044867009293602989070000007624750094693849783_"  style="overflow:visible;"/>
	</clipPath>
	<g style="clip-path:url(#SVGID_00000041290313128389263020000017619479130008538531_);">
		<path class="st1" d="M-109.4,6.1c-0.7-6.5-7.4-11.6-15.6-11.6c-8.2,0-14.9,5.1-15.6,11.6h1.6c0.8-5.6,6.8-10,14-10
			c7.2,0,13.2,4.4,14,10H-109.4z"/>
		<path class="st17" d="M-109.4,6.1c-0.7-6.5-7.4-11.6-15.6-11.6c-8.2,0-14.9,5.1-15.6,11.6h1.6c0.8-5.6,6.8-10,14-10
			c7.2,0,13.2,4.4,14,10H-109.4z"/>
		<path class="st3" d="M-111,6.1c-0.8-5.6-6.8-10-14-10c-7.2,0-13.2,4.4-14,10h1.8c0.8-4.7,6-8.4,12.3-8.4s11.6,3.7,12.3,8.4H-111z"
			/>
		<path class="st17" d="M-111,6.1c-0.8-5.6-6.8-10-14-10c-7.2,0-13.2,4.4-14,10h1.8c0.8-4.7,6-8.4,12.3-8.4s11.6,3.7,12.3,8.4H-111z
			"/>
		<path class="st4" d="M-112.5,6.1c-0.8-4.7-6-8.4-12.3-8.4s-11.6,3.7-12.3,8.4h1.6c0.8-3.8,5.3-6.7,10.7-6.7
			c5.4,0,9.9,2.9,10.7,6.7H-112.5z"/>
		<path class="st17" d="M-112.5,6.1c-0.8-4.7-6-8.4-12.3-8.4s-11.6,3.7-12.3,8.4h1.6c0.8-3.8,5.3-6.7,10.7-6.7
			c5.4,0,9.9,2.9,10.7,6.7H-112.5z"/>
		<path class="st5" d="M-114.2,6.1c-0.8-3.8-5.3-6.7-10.7-6.7c-5.4,0-9.9,2.9-10.7,6.7h1.6c0.8-2.9,4.6-5.2,9-5.2
			c4.5,0,8.2,2.2,9,5.2H-114.2z"/>
		<path class="st17" d="M-114.2,6.1c-0.8-3.8-5.3-6.7-10.7-6.7c-5.4,0-9.9,2.9-10.7,6.7h1.6c0.8-2.9,4.6-5.2,9-5.2
			c4.5,0,8.2,2.2,9,5.2H-114.2z"/>
		<path class="st6" d="M-115.9,6.1c-0.8-2.9-4.6-5.2-9-5.2s-8.2,2.2-9,5.2h1.5V4.2l3.3-1v0.1c1.2-0.5,2.6-0.7,4-0.7
			c1.7,0,3.3,0.3,4.5,0.9l-2.4,0.7l3.2-1V4c1,0.6,1.6,1.3,2,2.1H-115.9z"/>
		<path class="st17" d="M-115.9,6.1c-0.8-2.9-4.6-5.2-9-5.2s-8.2,2.2-9,5.2h1.5V4.2l3.3-1v0.1c1.2-0.5,2.6-0.7,4-0.7
			c1.7,0,3.3,0.3,4.5,0.9l-2.4,0.7l3.2-1V4c1,0.6,1.6,1.3,2,2.1H-115.9z"/>
		<path class="st7" d="M-120.6,3.5c-1.3-0.6-2.8-0.9-4.5-0.9c-1.5,0-2.9,0.3-4,0.7v2.8h6.1l0-1.8L-120.6,3.5z M-117.8,6.1
			c-0.3-0.8-1-1.6-2-2.1v2.1H-117.8z"/>
		<path class="st18" d="M-120.6,3.5c-1.3-0.6-2.8-0.9-4.5-0.9c-1.5,0-2.9,0.3-4,0.7v2.8h6.1l0-1.8L-120.6,3.5z M-117.8,6.1
			c-0.3-0.8-1-1.6-2-2.1v2.1H-117.8z"/>
		<path class="st0" d="M-123,4.4c-0.7-0.1-1.4-0.2-2.2-0.2c-1.5,0-2.9,0.3-4,0.8v1.1h6.1L-123,4.4z"/>
		<path class="st18" d="M-123,4.4c-0.7-0.1-1.4-0.2-2.2-0.2c-1.5,0-2.9,0.3-4,0.8v1.1h6.1L-123,4.4z"/>
	</g>
</g>
<path class="st19" d="M-51.6,67.8h-11.7c-5.6,0-10.1-4.5-10.1-10.1V46c0-5.6,4.5-10.1,10.1-10.1h11.7c5.6,0,10.1,4.5,10.1,10.1v11.7
	C-41.4,63.3-46,67.8-51.6,67.8z"/>
<g>
	<path class="st1" d="M-42.5,49.7c-0.7-6.1-7-10.8-14.6-10.8c-7.6,0-13.9,4.7-14.6,10.8h1.5c0.7-5.2,6.3-9.3,13-9.3
		c6.7,0,12.3,4.1,13,9.3H-42.5z"/>
	<path class="st20" d="M-42.5,49.7c-0.7-6.1-7-10.8-14.6-10.8c-7.6,0-13.9,4.7-14.6,10.8h1.5c0.7-5.2,6.3-9.3,13-9.3
		c6.7,0,12.3,4.1,13,9.3H-42.5z"/>
	<path class="st3" d="M-44,49.7c-0.7-5.2-6.3-9.3-13-9.3c-6.7,0-12.3,4.1-13,9.3h1.7c0.7-4.4,5.6-7.8,11.5-7.8s10.8,3.4,11.5,7.8
		H-44z"/>
	<path class="st20" d="M-44,49.7c-0.7-5.2-6.3-9.3-13-9.3c-6.7,0-12.3,4.1-13,9.3h1.7c0.7-4.4,5.6-7.8,11.5-7.8s10.8,3.4,11.5,7.8
		H-44z"/>
	<path class="st4" d="M-45.4,49.7c-0.7-4.4-5.6-7.8-11.5-7.8s-10.8,3.4-11.5,7.8h1.5c0.7-3.6,5-6.3,10-6.3s9.3,2.7,10,6.3H-45.4z"/>
	<path class="st20" d="M-45.4,49.7c-0.7-4.4-5.6-7.8-11.5-7.8s-10.8,3.4-11.5,7.8h1.5c0.7-3.6,5-6.3,10-6.3s9.3,2.7,10,6.3H-45.4z"
		/>
	<path class="st5" d="M-47,49.7c-0.7-3.6-5-6.3-10-6.3c-5,0-9.3,2.7-10,6.3h1.5c0.8-2.7,4.3-4.8,8.4-4.8c4.2,0,7.7,2.1,8.4,4.8H-47z
		"/>
	<path class="st20" d="M-47,49.7c-0.7-3.6-5-6.3-10-6.3c-5,0-9.3,2.7-10,6.3h1.5c0.8-2.7,4.3-4.8,8.4-4.8c4.2,0,7.7,2.1,8.4,4.8H-47
		z"/>
	<path class="st6" d="M-48.6,49.7c-0.8-2.7-4.3-4.8-8.4-4.8s-7.7,2.1-8.4,4.8h1.4v-1.8l3.1-0.9v0.1c1.1-0.4,2.4-0.7,3.8-0.7
		c1.6,0,3,0.3,4.2,0.9l-2.3,0.7l3-0.9v0.6c0.9,0.5,1.5,1.2,1.8,2H-48.6z"/>
	<path class="st20" d="M-48.6,49.7c-0.8-2.7-4.3-4.8-8.4-4.8s-7.7,2.1-8.4,4.8h1.4v-1.8l3.1-0.9v0.1c1.1-0.4,2.4-0.7,3.8-0.7
		c1.6,0,3,0.3,4.2,0.9l-2.3,0.7l3-0.9v0.6c0.9,0.5,1.5,1.2,1.8,2H-48.6z"/>
	<path class="st7" d="M-53,47.3c-1.2-0.5-2.6-0.9-4.2-0.9c-1.4,0-2.7,0.2-3.8,0.7v2.6h5.7l0-1.7L-53,47.3z M-50.4,49.7
		c-0.3-0.8-1-1.5-1.8-2v2H-50.4z"/>
	<path class="st21" d="M-53,47.3c-1.2-0.5-2.6-0.9-4.2-0.9c-1.4,0-2.7,0.2-3.8,0.7v2.6h5.7l0-1.7L-53,47.3z M-50.4,49.7
		c-0.3-0.8-1-1.5-1.8-2v2H-50.4z"/>
	<path class="st0" d="M-55.2,48.1c-0.6-0.1-1.3-0.2-2-0.2c-1.4,0-2.7,0.3-3.7,0.8v1h5.7L-55.2,48.1z"/>
	<path class="st21" d="M-55.2,48.1c-0.6-0.1-1.3-0.2-2-0.2c-1.4,0-2.7,0.3-3.7,0.8v1h5.7L-55.2,48.1z"/>
	<text transform="matrix(1 0 0 1 -63.0136 60.6739)" style="font-family:'ArialMT'; font-size:2.0616px;">WALDORF SCHOOL</text>
	<text transform="matrix(1 0 0 1 -63.0136 58.7989)" style="font-family:'ArialMT'; font-size:2.1297px;">THE HYDERABAD</text>
	<path class="st9" d="M-71.3,50.4l-0.5,1.1l2.2,0l-1.3,2c-0.4,0.6,1.6,1.7,3.2,2.2c0.9,0.5,1.5,0.6,1.9,1.1c0.4,0.5,0.2,1.5-1.1,2.1
		c-1.5,0.7-4.7-0.7-4.5-2.3l-1,2.1c0.5,1.6,4.7,2.1,5.7,1.1l2.6-2.5c0.6-0.6-0.1-1.5-0.9-2c-0.9-0.5-2.1-1-3-1.5
		c-0.8-0.4-1.4-0.8-1.4-1.2c-0.2-0.4,0.6-1.4,1.8-1.1c0.9,0.2,1.2,0.8,1.5,1.3l1-0.8c0-0.3-0.4-0.6-0.9-0.6h1.6l0.5-1.1L-71.3,50.4z
		 M-63.2,48.4l1.6-0.4l0,7.6l-1.6,1C-63.2,56.1-63.3,48.4-63.2,48.4z M-60.3,50.4l-0.5,1.1h1.5l-1.5,1.7c-0.6,0.8-0.4,1.8,0.3,2.4
		c0.7,0.6,1.4,0.8,2.2,0.8c0.7,0,1.2-0.1,1.8-0.8c0.7-0.7,1.2-1.1,1.5-1.8c0.1-0.3,0.1-0.6-0.2-1.1c-0.5-0.7-1.7-1.1-1.9-1.1h1.7
		l0.5-1.1H-60.3z M-58.7,52.3c-0.5,0-1.2,0.8-1.2,1.1c-0.1,0.9,0.4,1.3,0.7,1.5c1,0.6,2.4,0.3,2.7-0.7c0.1-0.5,0.3-1.1-0.7-1.6
		C-57.6,52.4-58,52.1-58.7,52.3z M-54.5,48.5l0,8.1l1.6-1v-1.9l2.3,2.5c0.2,0.2,0.3,0.4,0.6,0.5c0.7,0.2,1.5,0.3,2.3,0.3l-4.1-4.3
		l1.1-1.2l0.8,0l0.5-1.1h-2.4l-0.6,1.1l0.7,0l-1.2,1.3V48L-54.5,48.5z M-45.3,53.5c-1.7,0-2.5,1.5-1.3,1.8c0.6,0.1,1.2-0.4,1.3-0.9
		V53.5z M-48.4,50.4l-0.5,1.1h1.3c-0.4,0.2-0.6,0.5-0.7,1l1.1,0.3c0.1-0.5,0.4-1.3,1.2-1.3l0.7,0l0,1.2c-6.1,0.6-2,6.2,0,3v1
		l1.6-0.9v-4.2h0.6l0.6-1.1H-48.4z"/>
	<rect x="-73.4" y="38.2" class="st10" width="32" height="23.8"/>
</g>
<g>
	<defs>
		<path id="SVGID_00000155131806112023922910000008345405377001302167_" d="M-6.6,68.2h-27.6c-1.2,0-2.2-1-2.2-2.2V38.4
			c0-1.2,1-2.2,2.2-2.2h27.6c1.2,0,2.2,1,2.2,2.2V66C-4.4,67.2-5.3,68.2-6.6,68.2z"/>
	</defs>
	
		<use xlink:href="#SVGID_00000155131806112023922910000008345405377001302167_"  style="overflow:visible;fill-rule:evenodd;clip-rule:evenodd;fill:#D3D3D3;"/>
	<clipPath id="SVGID_00000103967733134446616690000005328287992115527297_">
		<use xlink:href="#SVGID_00000155131806112023922910000008345405377001302167_"  style="overflow:visible;"/>
	</clipPath>
</g>
<path class="st9" d="M-33.1,40l-1.2,2.7l10.1,0l-3.2,5c-1,1.5,3.9,4.1,7.8,5.5c2.1,1.1,3.7,1.4,4.7,2.6c1.1,1.3,0.4,3.7-2.7,5.1
	c-3.6,1.6-11.5-1.6-10.9-5.6l-2.3,5.2c1.2,3.8,11.5,5.2,14,2.8l6.5-6.2c1.6-1.5-0.1-3.5-2.3-4.8c-2.2-1.3-5.1-2.4-7.3-3.6
	c-2.1-1.1-3.4-1.9-3.3-2.9c-0.4-0.9,1.4-3.5,4.3-2.7c2.1,0.6,3,2,3.6,3.1l2.5-1.9c-0.1-0.6-0.9-1.5-2.2-1.5h7.8l1.1-2.7L-33.1,40z"
	/>
</svg>
