<svg xmlns="http://www.w3.org/2000/svg" width="35" height="36" viewBox="0 0 35 36">
  <path id="Icon_awesome-youtube" data-name="Icon awesome-youtube" d="M35.318,10.133c-.4-2.217-1.589-3.963-3.094-4.556C29.495,4.5,18.55,4.5,18.55,4.5S7.605,4.5,4.876,5.577C3.37,6.17,2.184,7.916,1.781,10.133c-.731,4.019-.731,12.4-.731,12.4s0,8.385.731,12.4a5.7,5.7,0,0,0,3.094,4.483C7.605,40.5,18.55,40.5,18.55,40.5s10.945,0,13.674-1.077a5.7,5.7,0,0,0,3.094-4.483c.731-4.019.731-12.4.731-12.4s0-8.385-.731-12.4ZM14.97,30.149V14.924l9.148,7.613L14.97,30.149Z" transform="translate(-1.05 -4.5)"/>
</svg>
